M48
;DRILL file {KiCad 4.0.7} date 10/15/17 21:51:03
;FORMAT={-:-/ absolute / inch / decimal}
FMAT,2
INCH,TZ
T1C0.016
T2C0.024
T3C0.028
T4C0.033
T5C0.040
T6C0.039
T7C0.134
%
G90
G05
M72
T1
X4.0705Y-3.1209
X4.0713Y-2.5894
X4.1575Y-2.0008
X4.1949Y-1.9517
X4.1996Y-1.7358
X4.2827Y-3.524
X4.2916Y-3.2143
X4.3053Y-3.2475
X4.3213Y-1.7512
X4.3228Y-2.1524
X4.3382Y-1.9693
X4.3539Y-2.1067
X4.3661Y-2.5472
X4.3878Y-2.4969
X4.3882Y-2.5264
X4.4008Y-1.7035
X4.422Y-2.0811
X4.4264Y-3.7953
X4.4276Y-1.948
X4.4406Y-3.6823
X4.4449Y-1.7508
X4.4792Y-2.1579
X4.4973Y-2.9712
X4.524Y-2.2007
X4.5268Y-3.0488
X4.5273Y-2.0883
X4.535Y-3.0098
X4.5472Y-3.7913
X4.5563Y-3.0311
X4.5768Y-2.1378
X4.5772Y-3.0524
X4.5776Y-3.6283
X4.602Y-2.8665
X4.6063Y-2.6772
X4.613Y-3.7031
X4.6192Y-2.1231
X4.6197Y-2.0606
X4.6205Y-2.5547
X4.622Y-3.4567
X4.6343Y-2.9157
X4.6425Y-2.4929
X4.6445Y-1.7508
X4.652Y-1.702
X4.6594Y-2.5177
X4.6618Y-2.1266
X4.6622Y-2.0608
X4.6622Y-2.9256
X4.6709Y-3.1665
X4.6831Y-2.9469
X4.7035Y-2.049
X4.7035Y-2.1386
X4.7106Y-3.1636
X4.7114Y-3.2043
X4.7114Y-3.2043
X4.7217Y-2.9673
X4.7402Y-2.9906
X4.7402Y-3.1636
X4.7535Y-2.3295
X4.7543Y-3.2823
X4.7596Y-2.8135
X4.7598Y-2.5774
X4.7618Y-2.713
X4.7659Y-2.5485
X4.7803Y-2.085
X4.7803Y-2.1386
X4.7811Y-3.6181
X4.8094Y-2.3563
X4.8097Y-3.0098
X4.8098Y-3.1636
X4.811Y-3.437
X4.8118Y-2.4622
X4.8165Y-2.876
X4.8244Y-3.2091
X4.8362Y-2.1413
X4.8362Y-2.1709
X4.8427Y-2.7165
X4.8457Y-2.6508
X4.8477Y-2.5773
X4.8486Y-1.8176
X4.8512Y-3.026
X4.8512Y-3.1872
X4.8544Y-1.8617
X4.8545Y-2.5443
X4.8564Y-2.815
X4.8579Y-2.7835
X4.8781Y-3.1993
X4.8791Y-2.5213
X4.8795Y-2.5677
X4.8807Y-3.026
X4.8937Y-2.8858
X4.9024Y-1.7004
X4.9201Y-3.4472
X4.9213Y-2.3555
X4.9567Y-2.8071
X4.9705Y-2.4252
X4.9921Y-2.8858
X5.0107Y-2.3457
X5.015Y-2.5654
X5.0169Y-2.7669
X5.0197Y-2.8071
X5.0299Y-3.4571
X5.0323Y-2.522
X5.042Y-1.6995
X5.0433Y-2.378
X5.0451Y-2.1457
X5.0453Y-2.1752
X5.0496Y-1.9406
X5.065Y-1.6083
X5.0676Y-2.8851
X5.076Y-2.785
X5.0831Y-2.3642
X5.1146Y-1.7128
X5.1291Y-2.8872
X5.1354Y-2.4248
X5.1379Y-1.9493
X5.1437Y-2.6941
X5.1535Y-2.772
X5.1575Y-2.8071
X5.1654Y-3.4528
X5.1682Y-2.3457
X5.1693Y-2.4245
X5.1705Y-2.5004
X5.1772Y-2.6969
X5.1772Y-2.7441
X5.1804Y-1.7372
X5.185Y-2.2441
X5.1858Y-2.6661
X5.1867Y-2.8858
X5.2087Y-2.6969
X5.2087Y-2.7441
X5.2228Y-2.4669
X5.2244Y-2.4363
X5.2244Y-2.8804
X5.2273Y-2.3457
X5.2362Y-2.8268
X5.248Y-3.7913
X5.2575Y-1.6526
X5.2583Y-2.087
X5.2638Y-2.5276
X5.2655Y-2.4161
X5.2913Y-2.4921
X5.2957Y-2.5253
X5.2965Y-2.7703
X5.2976Y-1.6197
X5.2992Y-2.1713
X5.3012Y-2.8136
X5.3013Y-2.4394
X5.3134Y-2.1224
X5.3516Y-2.3543
X5.3677Y-2.2382
X5.3913Y-1.9567
X5.3976Y-3.1457
X5.4047Y-2.402
X5.4252Y-2.6654
X5.4252Y-2.8976
X5.4567Y-3.1063
X5.463Y-1.6276
X5.4854Y-1.9551
X5.5118Y-2.6929
X5.5118Y-2.8701
X5.5138Y-3.0236
X5.5563Y-1.9472
X5.5583Y-1.7694
X5.5591Y-1.688
X5.5709Y-3.4803
X5.5787Y-3.0236
X5.598Y-1.6028
X5.5988Y-2.9555
X5.6264Y-3.1457
X5.6346Y-2.237
X5.6457Y-2.3819
X5.6457Y-2.4843
X5.6457Y-3.5945
X5.6457Y-3.6535
X5.6472Y-2.0043
X5.6512Y-2.4315
X5.6595Y-1.6947
X5.6728Y-2.2382
X5.6732Y-2.3514
X5.6756Y-3.1563
X5.6787Y-2.9563
X5.689Y-2.5024
X5.6949Y-2.002
X5.7008Y-3.2677
X5.7008Y-3.3346
X5.7055Y-2.2378
X5.7083Y-2.3531
X5.7232Y-2.9555
X5.7236Y-3.1232
X5.7264Y-3.0752
X5.7307Y-1.6488
X5.7343Y-3.3331
X5.7614Y-2.8894
X5.7756Y-3.6181
X5.7898Y-3.7874
X5.7961Y-3.2661
X5.815Y-2.3551
X5.8421Y-2.5776
X5.8591Y-2.2346
X5.8665Y-1.9638
X5.8717Y-2.0138
X5.8799Y-1.7028
X5.885Y-2.2748
X5.9006Y-2.8082
X5.9006Y-2.8378
X5.9114Y-2.6488
X5.9128Y-2.6996
X5.9197Y-1.9642
X5.9224Y-2.0047
X5.9339Y-2.4736
X5.9457Y-3.1232
X5.948Y-3.0752
X5.9516Y-1.9646
X6.0083Y-3.3343
X6.0681Y-3.2559
X6.1024Y-3.7795
X6.1323Y-1.9512
X6.1323Y-2.1453
X6.1551Y-1.7413
X6.1594Y-2.2441
X6.1753Y-3.
X6.1811Y-1.952
X6.1949Y-2.1441
X6.2217Y-2.802
X6.2217Y-3.1031
X6.222Y-2.5063
T3
X4.2Y-3.2
X4.2Y-3.25
X4.2Y-3.3
X4.2Y-3.35
X4.2Y-3.4
X4.25Y-3.2
X4.25Y-3.25
X4.25Y-3.3
X4.25Y-3.35
X4.25Y-3.4
T4
X5.4331Y-3.7736
X5.6299Y-3.7736
T5
X4.2Y-1.8
X4.2Y-1.9
X4.2Y-2.3
X4.2Y-2.4
X4.2Y-2.5
X4.2Y-2.6
X4.2Y-2.7
X4.2Y-2.8
X4.3Y-1.8
X4.3Y-1.9
X4.3Y-2.3
X4.3Y-2.4
X4.3Y-2.5
X4.3Y-2.6
X4.3Y-2.7
X4.3Y-2.8
X4.4Y-1.8
X4.4Y-1.9
X4.5Y-1.8
X4.5Y-1.9
X4.6Y-1.8
X4.6Y-1.9
X4.7Y-1.8
X4.7Y-1.9
X4.8Y-1.8
X4.8Y-1.9
X4.9Y-1.8
X4.9Y-1.9
X5.Y-1.8
X5.Y-1.9
X5.1Y-1.8
X5.1Y-1.9
X5.2Y-1.8
X5.2Y-1.9
X5.3Y-1.8
X5.3Y-1.9
X5.35Y-3.4
X5.35Y-3.5
X5.35Y-3.6
X5.4Y-1.8
X5.4Y-1.9
X5.45Y-3.4
X5.45Y-3.5
X5.45Y-3.6
X5.5Y-1.8
X5.5Y-1.9
X5.6Y-1.8
X5.6Y-1.9
X5.6Y-2.7
X5.6Y-2.8
X5.6Y-2.9
X5.7Y-1.8
X5.7Y-1.9
X5.7Y-2.7
X5.7Y-2.8
X5.7Y-2.9
X5.8Y-1.8
X5.8Y-1.9
X5.8583Y-3.652
X5.8583Y-3.752
X5.9Y-1.8
X5.9Y-1.9
X6.Y-1.8
X6.Y-1.9
X6.Y-2.3
X6.Y-2.4
X6.Y-2.5
X6.Y-2.6
X6.Y-2.7
X6.Y-2.8
X6.Y-2.9
X6.Y-3.
X6.Y-3.1
X6.Y-3.2
X6.1Y-1.8
X6.1Y-1.9
X6.1Y-2.3
X6.1Y-2.4
X6.1Y-2.5
X6.1Y-2.6
X6.1Y-2.7
X6.1Y-2.8
X6.1Y-2.9
X6.1Y-3.
X6.1Y-3.1
X6.1Y-3.2
T6
X4.7402Y-3.8071
X5.0551Y-3.8071
T7
X3.8976Y-2.1654
X3.8976Y-3.7402
X6.4961Y-2.1654
X6.4961Y-3.7402
T2
X5.3937Y-3.8937G85X5.3937Y-3.8661
G05
X5.6693Y-3.8661G85X5.6693Y-3.8937
G05
T0
M30
