G04 #@! TF.FileFunction,Paste,Top*
%FSLAX46Y46*%
G04 Gerber Fmt 4.6, Leading zero omitted, Abs format (unit mm)*
G04 Created by KiCad (PCBNEW 4.0.7) date 10/15/17 21:50:59*
%MOMM*%
%LPD*%
G01*
G04 APERTURE LIST*
%ADD10C,0.100000*%
%ADD11R,1.500000X0.280000*%
%ADD12R,0.280000X1.500000*%
%ADD13R,1.500000X1.900000*%
%ADD14R,0.400000X1.350000*%
%ADD15R,1.600000X1.400000*%
%ADD16R,0.700000X1.600000*%
%ADD17R,1.200000X2.200000*%
%ADD18R,0.800000X0.750000*%
%ADD19R,0.500000X0.900000*%
%ADD20R,1.300000X0.700000*%
%ADD21R,1.198880X1.198880*%
%ADD22R,0.750000X0.800000*%
%ADD23R,3.657600X2.032000*%
%ADD24R,1.016000X2.032000*%
%ADD25R,1.800000X1.000000*%
%ADD26R,1.400000X1.200000*%
G04 APERTURE END LIST*
D10*
D11*
X135672867Y-72461829D03*
X135672867Y-71961829D03*
X135672867Y-71461829D03*
X135672867Y-70961829D03*
X135672867Y-70461829D03*
X135672867Y-69961829D03*
X135672867Y-69461829D03*
X135672867Y-68961829D03*
X135672867Y-68461829D03*
X135672867Y-67961829D03*
X135672867Y-67461829D03*
X135672867Y-66961829D03*
X135672867Y-66461829D03*
X135672867Y-65961829D03*
X135672867Y-65461829D03*
X135672867Y-64961829D03*
X135672867Y-64461829D03*
X135672867Y-63961829D03*
X135672867Y-63461829D03*
X135672867Y-62961829D03*
X135672867Y-62461829D03*
X135672867Y-61961829D03*
X135672867Y-61461829D03*
X135672867Y-60961829D03*
X135672867Y-60461829D03*
D12*
X133772867Y-58561829D03*
X133272867Y-58561829D03*
X132772867Y-58561829D03*
X132272867Y-58561829D03*
X131772867Y-58561829D03*
X131272867Y-58561829D03*
X130772867Y-58561829D03*
X130272867Y-58561829D03*
X129772867Y-58561829D03*
X129272867Y-58561829D03*
X128772867Y-58561829D03*
X128272867Y-58561829D03*
X127772867Y-58561829D03*
X127272867Y-58561829D03*
X126772867Y-58561829D03*
X126272867Y-58561829D03*
X125772867Y-58561829D03*
X125272867Y-58561829D03*
X124772867Y-58561829D03*
X124272867Y-58561829D03*
X123772867Y-58561829D03*
X123272867Y-58561829D03*
X122772867Y-58561829D03*
X122272867Y-58561829D03*
X121772867Y-58561829D03*
D11*
X119872867Y-60461829D03*
X119872867Y-60961829D03*
X119872867Y-61461829D03*
X119872867Y-61961829D03*
X119872867Y-62461829D03*
X119872867Y-62961829D03*
X119872867Y-63461829D03*
X119872867Y-63961829D03*
X119872867Y-64461829D03*
X119872867Y-64961829D03*
X119872867Y-65461829D03*
X119872867Y-65961829D03*
X119872867Y-66461829D03*
X119872867Y-66961829D03*
X119872867Y-67461829D03*
X119872867Y-67961829D03*
X119872867Y-68461829D03*
X119872867Y-68961829D03*
X119872867Y-69461829D03*
X119872867Y-69961829D03*
X119872867Y-70461829D03*
X119872867Y-70961829D03*
X119872867Y-71461829D03*
X119872867Y-71961829D03*
X119872867Y-72461829D03*
D12*
X121772867Y-74361829D03*
X122272867Y-74361829D03*
X122772867Y-74361829D03*
X123272867Y-74361829D03*
X123772867Y-74361829D03*
X124272867Y-74361829D03*
X124772867Y-74361829D03*
X125272867Y-74361829D03*
X125772867Y-74361829D03*
X126272867Y-74361829D03*
X126772867Y-74361829D03*
X127272867Y-74361829D03*
X127772867Y-74361829D03*
X128272867Y-74361829D03*
X128772867Y-74361829D03*
X129272867Y-74361829D03*
X129772867Y-74361829D03*
X130272867Y-74361829D03*
X130772867Y-74361829D03*
X131272867Y-74361829D03*
X131772867Y-74361829D03*
X132272867Y-74361829D03*
X132772867Y-74361829D03*
X133272867Y-74361829D03*
X133772867Y-74361829D03*
D13*
X141500000Y-98550000D03*
D14*
X139850000Y-95850000D03*
X139200000Y-95850000D03*
X141800000Y-95850000D03*
X141150000Y-95850000D03*
X140500000Y-95850000D03*
D13*
X139500000Y-98550000D03*
D15*
X117400000Y-86700000D03*
D16*
X127700000Y-86200000D03*
X125500000Y-86200000D03*
X124400000Y-86200000D03*
X123300000Y-86200000D03*
X122200000Y-86200000D03*
X121100000Y-86200000D03*
X120000000Y-86200000D03*
D15*
X132200000Y-86700000D03*
D16*
X126600000Y-86200000D03*
X118900000Y-86200000D03*
D17*
X133100000Y-96300000D03*
X117600000Y-96300000D03*
D18*
X122550000Y-84200000D03*
X124050000Y-84200000D03*
D19*
X115350000Y-85000000D03*
X113850000Y-85000000D03*
X115250000Y-91300000D03*
X113750000Y-91300000D03*
X115250000Y-92900000D03*
X113750000Y-92900000D03*
X115250000Y-94500000D03*
X113750000Y-94500000D03*
X115250000Y-88100000D03*
X113750000Y-88100000D03*
X115250000Y-89700000D03*
X113750000Y-89700000D03*
X128850000Y-79900000D03*
X130350000Y-79900000D03*
X151500000Y-91000000D03*
X153000000Y-91000000D03*
D20*
X128792867Y-76271829D03*
X128792867Y-78171829D03*
D21*
X155000000Y-92950980D03*
X155000000Y-95049020D03*
D22*
X138600000Y-76650000D03*
X138600000Y-78150000D03*
D18*
X134850000Y-79900000D03*
X136350000Y-79900000D03*
X141142867Y-60521829D03*
X142642867Y-60521829D03*
X141142867Y-63121829D03*
X142642867Y-63121829D03*
X145650000Y-91300000D03*
X144150000Y-91300000D03*
X145650000Y-92800000D03*
X144150000Y-92800000D03*
D22*
X137792867Y-71371829D03*
X137792867Y-72871829D03*
X139292867Y-71371829D03*
X139292867Y-72871829D03*
X137800000Y-69950000D03*
X137800000Y-68450000D03*
X139300000Y-69950000D03*
X139300000Y-68450000D03*
X117692867Y-69471829D03*
X117692867Y-67971829D03*
D18*
X133342867Y-56321829D03*
X131842867Y-56321829D03*
D23*
X144780000Y-81788000D03*
D24*
X144780000Y-88392000D03*
X147066000Y-88392000D03*
X142494000Y-88392000D03*
D25*
X139192867Y-60571829D03*
X139192867Y-63071829D03*
D26*
X134600000Y-78200000D03*
X136800000Y-78200000D03*
X134600000Y-76600000D03*
X136800000Y-76600000D03*
M02*
