G04 #@! TF.FileFunction,Legend,Top*
%FSLAX46Y46*%
G04 Gerber Fmt 4.6, Leading zero omitted, Abs format (unit mm)*
G04 Created by KiCad (PCBNEW 4.0.7) date 10/15/17 21:50:59*
%MOMM*%
%LPD*%
G01*
G04 APERTURE LIST*
%ADD10C,0.100000*%
%ADD11C,0.200000*%
%ADD12C,0.150000*%
%ADD13C,0.120000*%
%ADD14R,1.760000X0.540000*%
%ADD15R,0.540000X1.760000*%
%ADD16R,1.760000X2.160000*%
%ADD17C,1.710000*%
%ADD18R,0.660000X1.610000*%
%ADD19O,1.460000X2.160000*%
%ADD20R,1.460000X2.160000*%
%ADD21R,1.860000X1.660000*%
%ADD22R,0.960000X1.860000*%
%ADD23R,1.460000X2.460000*%
%ADD24C,2.260000*%
%ADD25R,1.987200X1.987200*%
%ADD26O,1.987200X1.987200*%
%ADD27R,2.060000X2.060000*%
%ADD28O,2.060000X2.060000*%
%ADD29R,1.060000X1.010000*%
%ADD30C,7.260000*%
%ADD31R,0.760000X1.160000*%
%ADD32R,1.560000X0.960000*%
%ADD33R,2.292000X2.060000*%
%ADD34O,2.292000X2.060000*%
%ADD35R,1.458880X1.458880*%
%ADD36R,1.010000X1.060000*%
%ADD37R,3.917600X2.292000*%
%ADD38R,1.276000X2.292000*%
%ADD39R,2.060000X1.260000*%
%ADD40R,2.292000X2.292000*%
%ADD41O,2.292000X2.292000*%
%ADD42R,1.660000X1.460000*%
%ADD43R,1.360000X1.360000*%
%ADD44O,1.360000X1.360000*%
G04 APERTURE END LIST*
D10*
D11*
X153395238Y-97170952D02*
X153395238Y-96350952D01*
X153707619Y-96350952D01*
X153785714Y-96390000D01*
X153824762Y-96429048D01*
X153863810Y-96507143D01*
X153863810Y-96624286D01*
X153824762Y-96702381D01*
X153785714Y-96741429D01*
X153707619Y-96780476D01*
X153395238Y-96780476D01*
X154371429Y-96350952D02*
X154527619Y-96350952D01*
X154605714Y-96390000D01*
X154683810Y-96468095D01*
X154722857Y-96624286D01*
X154722857Y-96897619D01*
X154683810Y-97053810D01*
X154605714Y-97131905D01*
X154527619Y-97170952D01*
X154371429Y-97170952D01*
X154293333Y-97131905D01*
X154215238Y-97053810D01*
X154176190Y-96897619D01*
X154176190Y-96624286D01*
X154215238Y-96468095D01*
X154293333Y-96390000D01*
X154371429Y-96350952D01*
X154996191Y-96350952D02*
X155191429Y-97170952D01*
X155347619Y-96585238D01*
X155503810Y-97170952D01*
X155699048Y-96350952D01*
X156011429Y-96741429D02*
X156284762Y-96741429D01*
X156401905Y-97170952D02*
X156011429Y-97170952D01*
X156011429Y-96350952D01*
X156401905Y-96350952D01*
X157221906Y-97170952D02*
X156948572Y-96780476D01*
X156753334Y-97170952D02*
X156753334Y-96350952D01*
X157065715Y-96350952D01*
X157143810Y-96390000D01*
X157182858Y-96429048D01*
X157221906Y-96507143D01*
X157221906Y-96624286D01*
X157182858Y-96702381D01*
X157143810Y-96741429D01*
X157065715Y-96780476D01*
X156753334Y-96780476D01*
X150850952Y-97604762D02*
X151514762Y-97604762D01*
X151592857Y-97565714D01*
X151631905Y-97526667D01*
X151670952Y-97448571D01*
X151670952Y-97292381D01*
X151631905Y-97214286D01*
X151592857Y-97175238D01*
X151514762Y-97136190D01*
X150850952Y-97136190D01*
X151631905Y-96784762D02*
X151670952Y-96667619D01*
X151670952Y-96472381D01*
X151631905Y-96394285D01*
X151592857Y-96355238D01*
X151514762Y-96316190D01*
X151436667Y-96316190D01*
X151358571Y-96355238D01*
X151319524Y-96394285D01*
X151280476Y-96472381D01*
X151241429Y-96628571D01*
X151202381Y-96706666D01*
X151163333Y-96745714D01*
X151085238Y-96784762D01*
X151007143Y-96784762D01*
X150929048Y-96745714D01*
X150890000Y-96706666D01*
X150850952Y-96628571D01*
X150850952Y-96433333D01*
X150890000Y-96316190D01*
X151241429Y-95691429D02*
X151280476Y-95574286D01*
X151319524Y-95535238D01*
X151397619Y-95496190D01*
X151514762Y-95496190D01*
X151592857Y-95535238D01*
X151631905Y-95574286D01*
X151670952Y-95652381D01*
X151670952Y-95964762D01*
X150850952Y-95964762D01*
X150850952Y-95691429D01*
X150890000Y-95613333D01*
X150929048Y-95574286D01*
X151007143Y-95535238D01*
X151085238Y-95535238D01*
X151163333Y-95574286D01*
X151202381Y-95613333D01*
X151241429Y-95691429D01*
X151241429Y-95964762D01*
X151670952Y-94520000D02*
X150850952Y-94520000D01*
X150850952Y-94207619D01*
X150890000Y-94129524D01*
X150929048Y-94090476D01*
X151007143Y-94051428D01*
X151124286Y-94051428D01*
X151202381Y-94090476D01*
X151241429Y-94129524D01*
X151280476Y-94207619D01*
X151280476Y-94520000D01*
X150850952Y-93778095D02*
X151670952Y-93582857D01*
X151085238Y-93426667D01*
X151670952Y-93270476D01*
X150850952Y-93075238D01*
X151670952Y-92294285D02*
X151280476Y-92567619D01*
X151670952Y-92762857D02*
X150850952Y-92762857D01*
X150850952Y-92450476D01*
X150890000Y-92372381D01*
X150929048Y-92333333D01*
X151007143Y-92294285D01*
X151124286Y-92294285D01*
X151202381Y-92333333D01*
X151241429Y-92372381D01*
X151280476Y-92450476D01*
X151280476Y-92762857D01*
X133535952Y-89619524D02*
X134121667Y-89619524D01*
X134238810Y-89658572D01*
X134316905Y-89736667D01*
X134355952Y-89853810D01*
X134355952Y-89931905D01*
X133535952Y-89346191D02*
X133535952Y-88877619D01*
X134355952Y-89111905D02*
X133535952Y-89111905D01*
X134121667Y-88643334D02*
X134121667Y-88252857D01*
X134355952Y-88721429D02*
X133535952Y-88448095D01*
X134355952Y-88174762D01*
X133575000Y-87471905D02*
X133535952Y-87550000D01*
X133535952Y-87667143D01*
X133575000Y-87784286D01*
X133653095Y-87862381D01*
X133731190Y-87901429D01*
X133887381Y-87940477D01*
X134004524Y-87940477D01*
X134160714Y-87901429D01*
X134238810Y-87862381D01*
X134316905Y-87784286D01*
X134355952Y-87667143D01*
X134355952Y-87589048D01*
X134316905Y-87471905D01*
X134277857Y-87432857D01*
X134004524Y-87432857D01*
X134004524Y-87589048D01*
X134316905Y-87120477D02*
X134355952Y-87003334D01*
X134355952Y-86808096D01*
X134316905Y-86730000D01*
X134277857Y-86690953D01*
X134199762Y-86651905D01*
X134121667Y-86651905D01*
X134043571Y-86690953D01*
X134004524Y-86730000D01*
X133965476Y-86808096D01*
X133926429Y-86964286D01*
X133887381Y-87042381D01*
X133848333Y-87081429D01*
X133770238Y-87120477D01*
X133692143Y-87120477D01*
X133614048Y-87081429D01*
X133575000Y-87042381D01*
X133535952Y-86964286D01*
X133535952Y-86769048D01*
X133575000Y-86651905D01*
X133926429Y-86300477D02*
X133926429Y-86027144D01*
X134355952Y-85910001D02*
X134355952Y-86300477D01*
X133535952Y-86300477D01*
X133535952Y-85910001D01*
X134355952Y-85168096D02*
X134355952Y-85558572D01*
X133535952Y-85558572D01*
X139950952Y-87052381D02*
X139950952Y-86583809D01*
X140770952Y-86818095D02*
X139950952Y-86818095D01*
X140731905Y-86349524D02*
X140770952Y-86232381D01*
X140770952Y-86037143D01*
X140731905Y-85959047D01*
X140692857Y-85920000D01*
X140614762Y-85880952D01*
X140536667Y-85880952D01*
X140458571Y-85920000D01*
X140419524Y-85959047D01*
X140380476Y-86037143D01*
X140341429Y-86193333D01*
X140302381Y-86271428D01*
X140263333Y-86310476D01*
X140185238Y-86349524D01*
X140107143Y-86349524D01*
X140029048Y-86310476D01*
X139990000Y-86271428D01*
X139950952Y-86193333D01*
X139950952Y-85998095D01*
X139990000Y-85880952D01*
X139950952Y-85646667D02*
X139950952Y-85178095D01*
X140770952Y-85412381D02*
X139950952Y-85412381D01*
X136535238Y-84045000D02*
X136457143Y-84005952D01*
X136340000Y-84005952D01*
X136222857Y-84045000D01*
X136144762Y-84123095D01*
X136105714Y-84201190D01*
X136066666Y-84357381D01*
X136066666Y-84474524D01*
X136105714Y-84630714D01*
X136144762Y-84708810D01*
X136222857Y-84786905D01*
X136340000Y-84825952D01*
X136418095Y-84825952D01*
X136535238Y-84786905D01*
X136574286Y-84747857D01*
X136574286Y-84474524D01*
X136418095Y-84474524D01*
X136925714Y-84825952D02*
X136925714Y-84005952D01*
X137394286Y-84825952D01*
X137394286Y-84005952D01*
X137784762Y-84825952D02*
X137784762Y-84005952D01*
X137980000Y-84005952D01*
X138097143Y-84045000D01*
X138175238Y-84123095D01*
X138214286Y-84201190D01*
X138253334Y-84357381D01*
X138253334Y-84474524D01*
X138214286Y-84630714D01*
X138175238Y-84708810D01*
X138097143Y-84786905D01*
X137980000Y-84825952D01*
X137784762Y-84825952D01*
X135949525Y-93530952D02*
X136457144Y-93530952D01*
X136183811Y-93843333D01*
X136300953Y-93843333D01*
X136379049Y-93882381D01*
X136418096Y-93921429D01*
X136457144Y-93999524D01*
X136457144Y-94194762D01*
X136418096Y-94272857D01*
X136379049Y-94311905D01*
X136300953Y-94350952D01*
X136066668Y-94350952D01*
X135988572Y-94311905D01*
X135949525Y-94272857D01*
X136808572Y-94272857D02*
X136847620Y-94311905D01*
X136808572Y-94350952D01*
X136769524Y-94311905D01*
X136808572Y-94272857D01*
X136808572Y-94350952D01*
X137120953Y-93530952D02*
X137628572Y-93530952D01*
X137355239Y-93843333D01*
X137472381Y-93843333D01*
X137550477Y-93882381D01*
X137589524Y-93921429D01*
X137628572Y-93999524D01*
X137628572Y-94194762D01*
X137589524Y-94272857D01*
X137550477Y-94311905D01*
X137472381Y-94350952D01*
X137238096Y-94350952D01*
X137160000Y-94311905D01*
X137120953Y-94272857D01*
X137862857Y-93530952D02*
X138136191Y-94350952D01*
X138409524Y-93530952D01*
X144965952Y-66596905D02*
X145785952Y-66323571D01*
X144965952Y-66050238D01*
X145785952Y-65308333D02*
X145395476Y-65581667D01*
X145785952Y-65776905D02*
X144965952Y-65776905D01*
X144965952Y-65464524D01*
X145005000Y-65386429D01*
X145044048Y-65347381D01*
X145122143Y-65308333D01*
X145239286Y-65308333D01*
X145317381Y-65347381D01*
X145356429Y-65386429D01*
X145395476Y-65464524D01*
X145395476Y-65776905D01*
X145356429Y-64956905D02*
X145356429Y-64683572D01*
X145785952Y-64566429D02*
X145785952Y-64956905D01*
X144965952Y-64956905D01*
X144965952Y-64566429D01*
X145356429Y-63941667D02*
X145356429Y-64215000D01*
X145785952Y-64215000D02*
X144965952Y-64215000D01*
X144965952Y-63824524D01*
X145785952Y-63512143D02*
X144965952Y-63512143D01*
X144965952Y-63199762D01*
X145005000Y-63121667D01*
X145044048Y-63082619D01*
X145122143Y-63043571D01*
X145239286Y-63043571D01*
X145317381Y-63082619D01*
X145356429Y-63121667D01*
X145395476Y-63199762D01*
X145395476Y-63512143D01*
X140520952Y-79186572D02*
X141340952Y-78913238D01*
X140520952Y-78639905D01*
X141340952Y-77898000D02*
X140950476Y-78171334D01*
X141340952Y-78366572D02*
X140520952Y-78366572D01*
X140520952Y-78054191D01*
X140560000Y-77976096D01*
X140599048Y-77937048D01*
X140677143Y-77898000D01*
X140794286Y-77898000D01*
X140872381Y-77937048D01*
X140911429Y-77976096D01*
X140950476Y-78054191D01*
X140950476Y-78366572D01*
X140911429Y-77546572D02*
X140911429Y-77273239D01*
X141340952Y-77156096D02*
X141340952Y-77546572D01*
X140520952Y-77546572D01*
X140520952Y-77156096D01*
X140911429Y-76531334D02*
X140911429Y-76804667D01*
X141340952Y-76804667D02*
X140520952Y-76804667D01*
X140520952Y-76414191D01*
X141340952Y-76101810D02*
X140520952Y-76101810D01*
X141340952Y-75633238D01*
X140520952Y-75633238D01*
X142299525Y-75750952D02*
X142807144Y-75750952D01*
X142533811Y-76063333D01*
X142650953Y-76063333D01*
X142729049Y-76102381D01*
X142768096Y-76141429D01*
X142807144Y-76219524D01*
X142807144Y-76414762D01*
X142768096Y-76492857D01*
X142729049Y-76531905D01*
X142650953Y-76570952D01*
X142416668Y-76570952D01*
X142338572Y-76531905D01*
X142299525Y-76492857D01*
X143158572Y-76492857D02*
X143197620Y-76531905D01*
X143158572Y-76570952D01*
X143119524Y-76531905D01*
X143158572Y-76492857D01*
X143158572Y-76570952D01*
X143470953Y-75750952D02*
X143978572Y-75750952D01*
X143705239Y-76063333D01*
X143822381Y-76063333D01*
X143900477Y-76102381D01*
X143939524Y-76141429D01*
X143978572Y-76219524D01*
X143978572Y-76414762D01*
X143939524Y-76492857D01*
X143900477Y-76531905D01*
X143822381Y-76570952D01*
X143588096Y-76570952D01*
X143510000Y-76531905D01*
X143470953Y-76492857D01*
X144212857Y-75750952D02*
X144486191Y-76570952D01*
X144759524Y-75750952D01*
X142885238Y-66265000D02*
X142807143Y-66225952D01*
X142690000Y-66225952D01*
X142572857Y-66265000D01*
X142494762Y-66343095D01*
X142455714Y-66421190D01*
X142416666Y-66577381D01*
X142416666Y-66694524D01*
X142455714Y-66850714D01*
X142494762Y-66928810D01*
X142572857Y-67006905D01*
X142690000Y-67045952D01*
X142768095Y-67045952D01*
X142885238Y-67006905D01*
X142924286Y-66967857D01*
X142924286Y-66694524D01*
X142768095Y-66694524D01*
X143275714Y-67045952D02*
X143275714Y-66225952D01*
X143744286Y-67045952D01*
X143744286Y-66225952D01*
X144134762Y-67045952D02*
X144134762Y-66225952D01*
X144330000Y-66225952D01*
X144447143Y-66265000D01*
X144525238Y-66343095D01*
X144564286Y-66421190D01*
X144603334Y-66577381D01*
X144603334Y-66694524D01*
X144564286Y-66850714D01*
X144525238Y-66928810D01*
X144447143Y-67006905D01*
X144330000Y-67045952D01*
X144134762Y-67045952D01*
X111749762Y-69440000D02*
X111671667Y-69400952D01*
X111554524Y-69400952D01*
X111437381Y-69440000D01*
X111359286Y-69518095D01*
X111320238Y-69596190D01*
X111281190Y-69752381D01*
X111281190Y-69869524D01*
X111320238Y-70025714D01*
X111359286Y-70103810D01*
X111437381Y-70181905D01*
X111554524Y-70220952D01*
X111632619Y-70220952D01*
X111749762Y-70181905D01*
X111788810Y-70142857D01*
X111788810Y-69869524D01*
X111632619Y-69869524D01*
X112140238Y-70220952D02*
X112140238Y-69400952D01*
X112608810Y-70220952D01*
X112608810Y-69400952D01*
X112999286Y-70220952D02*
X112999286Y-69400952D01*
X113194524Y-69400952D01*
X113311667Y-69440000D01*
X113389762Y-69518095D01*
X113428810Y-69596190D01*
X113467858Y-69752381D01*
X113467858Y-69869524D01*
X113428810Y-70025714D01*
X113389762Y-70103810D01*
X113311667Y-70181905D01*
X113194524Y-70220952D01*
X112999286Y-70220952D01*
X111242143Y-64320952D02*
X111749762Y-64320952D01*
X111476429Y-64633333D01*
X111593571Y-64633333D01*
X111671667Y-64672381D01*
X111710714Y-64711429D01*
X111749762Y-64789524D01*
X111749762Y-64984762D01*
X111710714Y-65062857D01*
X111671667Y-65101905D01*
X111593571Y-65140952D01*
X111359286Y-65140952D01*
X111281190Y-65101905D01*
X111242143Y-65062857D01*
X112101190Y-65062857D02*
X112140238Y-65101905D01*
X112101190Y-65140952D01*
X112062142Y-65101905D01*
X112101190Y-65062857D01*
X112101190Y-65140952D01*
X112413571Y-64320952D02*
X112921190Y-64320952D01*
X112647857Y-64633333D01*
X112764999Y-64633333D01*
X112843095Y-64672381D01*
X112882142Y-64711429D01*
X112921190Y-64789524D01*
X112921190Y-64984762D01*
X112882142Y-65062857D01*
X112843095Y-65101905D01*
X112764999Y-65140952D01*
X112530714Y-65140952D01*
X112452618Y-65101905D01*
X112413571Y-65062857D01*
X113155475Y-64320952D02*
X113428809Y-65140952D01*
X113702142Y-64320952D01*
X111710714Y-59240952D02*
X111320238Y-59240952D01*
X111281190Y-59631429D01*
X111320238Y-59592381D01*
X111398333Y-59553333D01*
X111593571Y-59553333D01*
X111671667Y-59592381D01*
X111710714Y-59631429D01*
X111749762Y-59709524D01*
X111749762Y-59904762D01*
X111710714Y-59982857D01*
X111671667Y-60021905D01*
X111593571Y-60060952D01*
X111398333Y-60060952D01*
X111320238Y-60021905D01*
X111281190Y-59982857D01*
X112101190Y-59982857D02*
X112140238Y-60021905D01*
X112101190Y-60060952D01*
X112062142Y-60021905D01*
X112101190Y-59982857D01*
X112101190Y-60060952D01*
X112647857Y-59240952D02*
X112725952Y-59240952D01*
X112804047Y-59280000D01*
X112843095Y-59319048D01*
X112882142Y-59397143D01*
X112921190Y-59553333D01*
X112921190Y-59748571D01*
X112882142Y-59904762D01*
X112843095Y-59982857D01*
X112804047Y-60021905D01*
X112725952Y-60060952D01*
X112647857Y-60060952D01*
X112569761Y-60021905D01*
X112530714Y-59982857D01*
X112491666Y-59904762D01*
X112452618Y-59748571D01*
X112452618Y-59553333D01*
X112491666Y-59397143D01*
X112530714Y-59319048D01*
X112569761Y-59280000D01*
X112647857Y-59240952D01*
X113155475Y-59240952D02*
X113428809Y-60060952D01*
X113702142Y-59240952D01*
X110490000Y-62230000D02*
X114300000Y-62230000D01*
X110490000Y-67310000D02*
X114300000Y-67310000D01*
X110490000Y-72390000D02*
X110490000Y-67310000D01*
X114300000Y-72390000D02*
X110490000Y-72390000D01*
X114300000Y-57150000D02*
X114300000Y-72390000D01*
X110490000Y-57150000D02*
X114300000Y-57150000D01*
X103027714Y-69440000D02*
X102949619Y-69400952D01*
X102832476Y-69400952D01*
X102715333Y-69440000D01*
X102637238Y-69518095D01*
X102598190Y-69596190D01*
X102559142Y-69752381D01*
X102559142Y-69869524D01*
X102598190Y-70025714D01*
X102637238Y-70103810D01*
X102715333Y-70181905D01*
X102832476Y-70220952D01*
X102910571Y-70220952D01*
X103027714Y-70181905D01*
X103066762Y-70142857D01*
X103066762Y-69869524D01*
X102910571Y-69869524D01*
X103418190Y-70220952D02*
X103418190Y-69400952D01*
X103886762Y-70220952D01*
X103886762Y-69400952D01*
X104277238Y-70220952D02*
X104277238Y-69400952D01*
X104472476Y-69400952D01*
X104589619Y-69440000D01*
X104667714Y-69518095D01*
X104706762Y-69596190D01*
X104745810Y-69752381D01*
X104745810Y-69869524D01*
X104706762Y-70025714D01*
X104667714Y-70103810D01*
X104589619Y-70181905D01*
X104472476Y-70220952D01*
X104277238Y-70220952D01*
X102363906Y-64320952D02*
X102871525Y-64320952D01*
X102598192Y-64633333D01*
X102715334Y-64633333D01*
X102793430Y-64672381D01*
X102832477Y-64711429D01*
X102871525Y-64789524D01*
X102871525Y-64984762D01*
X102832477Y-65062857D01*
X102793430Y-65101905D01*
X102715334Y-65140952D01*
X102481049Y-65140952D01*
X102402953Y-65101905D01*
X102363906Y-65062857D01*
X103222953Y-65062857D02*
X103262001Y-65101905D01*
X103222953Y-65140952D01*
X103183905Y-65101905D01*
X103222953Y-65062857D01*
X103222953Y-65140952D01*
X103535334Y-64320952D02*
X104042953Y-64320952D01*
X103769620Y-64633333D01*
X103886762Y-64633333D01*
X103964858Y-64672381D01*
X104003905Y-64711429D01*
X104042953Y-64789524D01*
X104042953Y-64984762D01*
X104003905Y-65062857D01*
X103964858Y-65101905D01*
X103886762Y-65140952D01*
X103652477Y-65140952D01*
X103574381Y-65101905D01*
X103535334Y-65062857D01*
X104277238Y-64320952D02*
X104550572Y-65140952D01*
X104823905Y-64320952D01*
X101600000Y-72390000D02*
X105410000Y-72390000D01*
X101600000Y-67310000D02*
X101600000Y-72390000D01*
X105410000Y-67310000D02*
X101600000Y-67310000D01*
X101600000Y-67310000D02*
X105410000Y-67310000D01*
X101600000Y-62230000D02*
X101600000Y-67310000D01*
X101600000Y-57150000D02*
X105410000Y-57150000D01*
X101600000Y-62230000D02*
X101600000Y-57150000D01*
X105410000Y-62230000D02*
X101600000Y-62230000D01*
X102832477Y-59240952D02*
X102442001Y-59240952D01*
X102402953Y-59631429D01*
X102442001Y-59592381D01*
X102520096Y-59553333D01*
X102715334Y-59553333D01*
X102793430Y-59592381D01*
X102832477Y-59631429D01*
X102871525Y-59709524D01*
X102871525Y-59904762D01*
X102832477Y-59982857D01*
X102793430Y-60021905D01*
X102715334Y-60060952D01*
X102520096Y-60060952D01*
X102442001Y-60021905D01*
X102402953Y-59982857D01*
X103222953Y-59982857D02*
X103262001Y-60021905D01*
X103222953Y-60060952D01*
X103183905Y-60021905D01*
X103222953Y-59982857D01*
X103222953Y-60060952D01*
X103769620Y-59240952D02*
X103847715Y-59240952D01*
X103925810Y-59280000D01*
X103964858Y-59319048D01*
X104003905Y-59397143D01*
X104042953Y-59553333D01*
X104042953Y-59748571D01*
X104003905Y-59904762D01*
X103964858Y-59982857D01*
X103925810Y-60021905D01*
X103847715Y-60060952D01*
X103769620Y-60060952D01*
X103691524Y-60021905D01*
X103652477Y-59982857D01*
X103613429Y-59904762D01*
X103574381Y-59748571D01*
X103574381Y-59553333D01*
X103613429Y-59397143D01*
X103652477Y-59319048D01*
X103691524Y-59280000D01*
X103769620Y-59240952D01*
X104277238Y-59240952D02*
X104550572Y-60060952D01*
X104823905Y-59240952D01*
X144892228Y-79408552D02*
X145165562Y-80228552D01*
X145438895Y-79408552D01*
X146180800Y-80228552D02*
X145907466Y-79838076D01*
X145712228Y-80228552D02*
X145712228Y-79408552D01*
X146024609Y-79408552D01*
X146102704Y-79447600D01*
X146141752Y-79486648D01*
X146180800Y-79564743D01*
X146180800Y-79681886D01*
X146141752Y-79759981D01*
X146102704Y-79799029D01*
X146024609Y-79838076D01*
X145712228Y-79838076D01*
X146532228Y-79799029D02*
X146805561Y-79799029D01*
X146922704Y-80228552D02*
X146532228Y-80228552D01*
X146532228Y-79408552D01*
X146922704Y-79408552D01*
X147547466Y-79799029D02*
X147274133Y-79799029D01*
X147274133Y-80228552D02*
X147274133Y-79408552D01*
X147664609Y-79408552D01*
X147976990Y-80228552D02*
X147976990Y-79408552D01*
X148445562Y-80228552D01*
X148445562Y-79408552D01*
X146102706Y-78290952D02*
X146610325Y-78290952D01*
X146336992Y-78603333D01*
X146454134Y-78603333D01*
X146532230Y-78642381D01*
X146571277Y-78681429D01*
X146610325Y-78759524D01*
X146610325Y-78954762D01*
X146571277Y-79032857D01*
X146532230Y-79071905D01*
X146454134Y-79110952D01*
X146219849Y-79110952D01*
X146141753Y-79071905D01*
X146102706Y-79032857D01*
X146961753Y-79032857D02*
X147000801Y-79071905D01*
X146961753Y-79110952D01*
X146922705Y-79071905D01*
X146961753Y-79032857D01*
X146961753Y-79110952D01*
X147274134Y-78290952D02*
X147781753Y-78290952D01*
X147508420Y-78603333D01*
X147625562Y-78603333D01*
X147703658Y-78642381D01*
X147742705Y-78681429D01*
X147781753Y-78759524D01*
X147781753Y-78954762D01*
X147742705Y-79032857D01*
X147703658Y-79071905D01*
X147625562Y-79110952D01*
X147391277Y-79110952D01*
X147313181Y-79071905D01*
X147274134Y-79032857D01*
X148016038Y-78290952D02*
X148289372Y-79110952D01*
X148562705Y-78290952D01*
X146727467Y-76141429D02*
X146844610Y-76180476D01*
X146883658Y-76219524D01*
X146922706Y-76297619D01*
X146922706Y-76414762D01*
X146883658Y-76492857D01*
X146844610Y-76531905D01*
X146766515Y-76570952D01*
X146454134Y-76570952D01*
X146454134Y-75750952D01*
X146727467Y-75750952D01*
X146805563Y-75790000D01*
X146844610Y-75829048D01*
X146883658Y-75907143D01*
X146883658Y-75985238D01*
X146844610Y-76063333D01*
X146805563Y-76102381D01*
X146727467Y-76141429D01*
X146454134Y-76141429D01*
X147703658Y-76570952D02*
X147235086Y-76570952D01*
X147469372Y-76570952D02*
X147469372Y-75750952D01*
X147391277Y-75868095D01*
X147313182Y-75946190D01*
X147235086Y-75985238D01*
X148016038Y-75829048D02*
X148055086Y-75790000D01*
X148133181Y-75750952D01*
X148328419Y-75750952D01*
X148406515Y-75790000D01*
X148445562Y-75829048D01*
X148484610Y-75907143D01*
X148484610Y-75985238D01*
X148445562Y-76102381D01*
X147976991Y-76570952D01*
X148484610Y-76570952D01*
X147508419Y-73601429D02*
X147625562Y-73640476D01*
X147664610Y-73679524D01*
X147703658Y-73757619D01*
X147703658Y-73874762D01*
X147664610Y-73952857D01*
X147625562Y-73991905D01*
X147547467Y-74030952D01*
X147235086Y-74030952D01*
X147235086Y-73210952D01*
X147508419Y-73210952D01*
X147586515Y-73250000D01*
X147625562Y-73289048D01*
X147664610Y-73367143D01*
X147664610Y-73445238D01*
X147625562Y-73523333D01*
X147586515Y-73562381D01*
X147508419Y-73601429D01*
X147235086Y-73601429D01*
X148016038Y-73289048D02*
X148055086Y-73250000D01*
X148133181Y-73210952D01*
X148328419Y-73210952D01*
X148406515Y-73250000D01*
X148445562Y-73289048D01*
X148484610Y-73367143D01*
X148484610Y-73445238D01*
X148445562Y-73562381D01*
X147976991Y-74030952D01*
X148484610Y-74030952D01*
X147508419Y-71061429D02*
X147625562Y-71100476D01*
X147664610Y-71139524D01*
X147703658Y-71217619D01*
X147703658Y-71334762D01*
X147664610Y-71412857D01*
X147625562Y-71451905D01*
X147547467Y-71490952D01*
X147235086Y-71490952D01*
X147235086Y-70670952D01*
X147508419Y-70670952D01*
X147586515Y-70710000D01*
X147625562Y-70749048D01*
X147664610Y-70827143D01*
X147664610Y-70905238D01*
X147625562Y-70983333D01*
X147586515Y-71022381D01*
X147508419Y-71061429D01*
X147235086Y-71061429D01*
X148211277Y-70670952D02*
X148289372Y-70670952D01*
X148367467Y-70710000D01*
X148406515Y-70749048D01*
X148445562Y-70827143D01*
X148484610Y-70983333D01*
X148484610Y-71178571D01*
X148445562Y-71334762D01*
X148406515Y-71412857D01*
X148367467Y-71451905D01*
X148289372Y-71490952D01*
X148211277Y-71490952D01*
X148133181Y-71451905D01*
X148094134Y-71412857D01*
X148055086Y-71334762D01*
X148016038Y-71178571D01*
X148016038Y-70983333D01*
X148055086Y-70827143D01*
X148094134Y-70749048D01*
X148133181Y-70710000D01*
X148211277Y-70670952D01*
X146532229Y-68716667D02*
X146922706Y-68716667D01*
X146454134Y-68950952D02*
X146727468Y-68130952D01*
X147000801Y-68950952D01*
X147235086Y-68209048D02*
X147274134Y-68170000D01*
X147352229Y-68130952D01*
X147547467Y-68130952D01*
X147625563Y-68170000D01*
X147664610Y-68209048D01*
X147703658Y-68287143D01*
X147703658Y-68365238D01*
X147664610Y-68482381D01*
X147196039Y-68950952D01*
X147703658Y-68950952D01*
X148484610Y-68950952D02*
X148016038Y-68950952D01*
X148250324Y-68950952D02*
X148250324Y-68130952D01*
X148172229Y-68248095D01*
X148094134Y-68326190D01*
X148016038Y-68365238D01*
X146532229Y-66176667D02*
X146922706Y-66176667D01*
X146454134Y-66410952D02*
X146727468Y-65590952D01*
X147000801Y-66410952D01*
X147703658Y-66410952D02*
X147235086Y-66410952D01*
X147469372Y-66410952D02*
X147469372Y-65590952D01*
X147391277Y-65708095D01*
X147313182Y-65786190D01*
X147235086Y-65825238D01*
X148094134Y-66410952D02*
X148250324Y-66410952D01*
X148328419Y-66371905D01*
X148367467Y-66332857D01*
X148445562Y-66215714D01*
X148484610Y-66059524D01*
X148484610Y-65747143D01*
X148445562Y-65669048D01*
X148406515Y-65630000D01*
X148328419Y-65590952D01*
X148172229Y-65590952D01*
X148094134Y-65630000D01*
X148055086Y-65669048D01*
X148016038Y-65747143D01*
X148016038Y-65942381D01*
X148055086Y-66020476D01*
X148094134Y-66059524D01*
X148172229Y-66098571D01*
X148328419Y-66098571D01*
X148406515Y-66059524D01*
X148445562Y-66020476D01*
X148484610Y-65942381D01*
X146532229Y-63636667D02*
X146922706Y-63636667D01*
X146454134Y-63870952D02*
X146727468Y-63050952D01*
X147000801Y-63870952D01*
X147703658Y-63870952D02*
X147235086Y-63870952D01*
X147469372Y-63870952D02*
X147469372Y-63050952D01*
X147391277Y-63168095D01*
X147313182Y-63246190D01*
X147235086Y-63285238D01*
X147976991Y-63050952D02*
X148523658Y-63050952D01*
X148172229Y-63870952D01*
X146532229Y-61096667D02*
X146922706Y-61096667D01*
X146454134Y-61330952D02*
X146727468Y-60510952D01*
X147000801Y-61330952D01*
X147703658Y-61330952D02*
X147235086Y-61330952D01*
X147469372Y-61330952D02*
X147469372Y-60510952D01*
X147391277Y-60628095D01*
X147313182Y-60706190D01*
X147235086Y-60745238D01*
X148445562Y-60510952D02*
X148055086Y-60510952D01*
X148016038Y-60901429D01*
X148055086Y-60862381D01*
X148133181Y-60823333D01*
X148328419Y-60823333D01*
X148406515Y-60862381D01*
X148445562Y-60901429D01*
X148484610Y-60979524D01*
X148484610Y-61174762D01*
X148445562Y-61252857D01*
X148406515Y-61291905D01*
X148328419Y-61330952D01*
X148133181Y-61330952D01*
X148055086Y-61291905D01*
X148016038Y-61252857D01*
X146532229Y-58556667D02*
X146922706Y-58556667D01*
X146454134Y-58790952D02*
X146727468Y-57970952D01*
X147000801Y-58790952D01*
X147703658Y-58790952D02*
X147235086Y-58790952D01*
X147469372Y-58790952D02*
X147469372Y-57970952D01*
X147391277Y-58088095D01*
X147313182Y-58166190D01*
X147235086Y-58205238D01*
X147976991Y-57970952D02*
X148484610Y-57970952D01*
X148211277Y-58283333D01*
X148328419Y-58283333D01*
X148406515Y-58322381D01*
X148445562Y-58361429D01*
X148484610Y-58439524D01*
X148484610Y-58634762D01*
X148445562Y-58712857D01*
X148406515Y-58751905D01*
X148328419Y-58790952D01*
X148094134Y-58790952D01*
X148016038Y-58751905D01*
X147976991Y-58712857D01*
X158878895Y-80830952D02*
X159152229Y-81650952D01*
X159425562Y-80830952D01*
X160167467Y-81650952D02*
X159894133Y-81260476D01*
X159698895Y-81650952D02*
X159698895Y-80830952D01*
X160011276Y-80830952D01*
X160089371Y-80870000D01*
X160128419Y-80909048D01*
X160167467Y-80987143D01*
X160167467Y-81104286D01*
X160128419Y-81182381D01*
X160089371Y-81221429D01*
X160011276Y-81260476D01*
X159698895Y-81260476D01*
X160518895Y-81221429D02*
X160792228Y-81221429D01*
X160909371Y-81650952D02*
X160518895Y-81650952D01*
X160518895Y-80830952D01*
X160909371Y-80830952D01*
X161534133Y-81221429D02*
X161260800Y-81221429D01*
X161260800Y-81650952D02*
X161260800Y-80830952D01*
X161651276Y-80830952D01*
X161963657Y-81650952D02*
X161963657Y-80830952D01*
X162276038Y-80830952D01*
X162354133Y-80870000D01*
X162393181Y-80909048D01*
X162432229Y-80987143D01*
X162432229Y-81104286D01*
X162393181Y-81182381D01*
X162354133Y-81221429D01*
X162276038Y-81260476D01*
X161963657Y-81260476D01*
X159425562Y-78330000D02*
X159347467Y-78290952D01*
X159230324Y-78290952D01*
X159113181Y-78330000D01*
X159035086Y-78408095D01*
X158996038Y-78486190D01*
X158956990Y-78642381D01*
X158956990Y-78759524D01*
X158996038Y-78915714D01*
X159035086Y-78993810D01*
X159113181Y-79071905D01*
X159230324Y-79110952D01*
X159308419Y-79110952D01*
X159425562Y-79071905D01*
X159464610Y-79032857D01*
X159464610Y-78759524D01*
X159308419Y-78759524D01*
X159816038Y-79110952D02*
X159816038Y-78290952D01*
X160284610Y-79110952D01*
X160284610Y-78290952D01*
X160675086Y-79110952D02*
X160675086Y-78290952D01*
X160870324Y-78290952D01*
X160987467Y-78330000D01*
X161065562Y-78408095D01*
X161104610Y-78486190D01*
X161143658Y-78642381D01*
X161143658Y-78759524D01*
X161104610Y-78915714D01*
X161065562Y-78993810D01*
X160987467Y-79071905D01*
X160870324Y-79110952D01*
X160675086Y-79110952D01*
X159269371Y-76649429D02*
X159386514Y-76688476D01*
X159425562Y-76727524D01*
X159464610Y-76805619D01*
X159464610Y-76922762D01*
X159425562Y-77000857D01*
X159386514Y-77039905D01*
X159308419Y-77078952D01*
X158996038Y-77078952D01*
X158996038Y-76258952D01*
X159269371Y-76258952D01*
X159347467Y-76298000D01*
X159386514Y-76337048D01*
X159425562Y-76415143D01*
X159425562Y-76493238D01*
X159386514Y-76571333D01*
X159347467Y-76610381D01*
X159269371Y-76649429D01*
X158996038Y-76649429D01*
X160245562Y-77078952D02*
X159776990Y-77078952D01*
X160011276Y-77078952D02*
X160011276Y-76258952D01*
X159933181Y-76376095D01*
X159855086Y-76454190D01*
X159776990Y-76493238D01*
X160518895Y-76258952D02*
X161026514Y-76258952D01*
X160753181Y-76571333D01*
X160870323Y-76571333D01*
X160948419Y-76610381D01*
X160987466Y-76649429D01*
X161026514Y-76727524D01*
X161026514Y-76922762D01*
X160987466Y-77000857D01*
X160948419Y-77039905D01*
X160870323Y-77078952D01*
X160636038Y-77078952D01*
X160557942Y-77039905D01*
X160518895Y-77000857D01*
X159269371Y-73601429D02*
X159386514Y-73640476D01*
X159425562Y-73679524D01*
X159464610Y-73757619D01*
X159464610Y-73874762D01*
X159425562Y-73952857D01*
X159386514Y-73991905D01*
X159308419Y-74030952D01*
X158996038Y-74030952D01*
X158996038Y-73210952D01*
X159269371Y-73210952D01*
X159347467Y-73250000D01*
X159386514Y-73289048D01*
X159425562Y-73367143D01*
X159425562Y-73445238D01*
X159386514Y-73523333D01*
X159347467Y-73562381D01*
X159269371Y-73601429D01*
X158996038Y-73601429D01*
X159737943Y-73210952D02*
X160245562Y-73210952D01*
X159972229Y-73523333D01*
X160089371Y-73523333D01*
X160167467Y-73562381D01*
X160206514Y-73601429D01*
X160245562Y-73679524D01*
X160245562Y-73874762D01*
X160206514Y-73952857D01*
X160167467Y-73991905D01*
X160089371Y-74030952D01*
X159855086Y-74030952D01*
X159776990Y-73991905D01*
X159737943Y-73952857D01*
X159269371Y-71061429D02*
X159386514Y-71100476D01*
X159425562Y-71139524D01*
X159464610Y-71217619D01*
X159464610Y-71334762D01*
X159425562Y-71412857D01*
X159386514Y-71451905D01*
X159308419Y-71490952D01*
X158996038Y-71490952D01*
X158996038Y-70670952D01*
X159269371Y-70670952D01*
X159347467Y-70710000D01*
X159386514Y-70749048D01*
X159425562Y-70827143D01*
X159425562Y-70905238D01*
X159386514Y-70983333D01*
X159347467Y-71022381D01*
X159269371Y-71061429D01*
X158996038Y-71061429D01*
X160245562Y-71490952D02*
X159776990Y-71490952D01*
X160011276Y-71490952D02*
X160011276Y-70670952D01*
X159933181Y-70788095D01*
X159855086Y-70866190D01*
X159776990Y-70905238D01*
X158956990Y-68716667D02*
X159347467Y-68716667D01*
X158878895Y-68950952D02*
X159152229Y-68130952D01*
X159425562Y-68950952D01*
X159659847Y-68209048D02*
X159698895Y-68170000D01*
X159776990Y-68130952D01*
X159972228Y-68130952D01*
X160050324Y-68170000D01*
X160089371Y-68209048D01*
X160128419Y-68287143D01*
X160128419Y-68365238D01*
X160089371Y-68482381D01*
X159620800Y-68950952D01*
X160128419Y-68950952D01*
X160440799Y-68209048D02*
X160479847Y-68170000D01*
X160557942Y-68130952D01*
X160753180Y-68130952D01*
X160831276Y-68170000D01*
X160870323Y-68209048D01*
X160909371Y-68287143D01*
X160909371Y-68365238D01*
X160870323Y-68482381D01*
X160401752Y-68950952D01*
X160909371Y-68950952D01*
X158956990Y-66176667D02*
X159347467Y-66176667D01*
X158878895Y-66410952D02*
X159152229Y-65590952D01*
X159425562Y-66410952D01*
X159659847Y-65669048D02*
X159698895Y-65630000D01*
X159776990Y-65590952D01*
X159972228Y-65590952D01*
X160050324Y-65630000D01*
X160089371Y-65669048D01*
X160128419Y-65747143D01*
X160128419Y-65825238D01*
X160089371Y-65942381D01*
X159620800Y-66410952D01*
X160128419Y-66410952D01*
X160636038Y-65590952D02*
X160714133Y-65590952D01*
X160792228Y-65630000D01*
X160831276Y-65669048D01*
X160870323Y-65747143D01*
X160909371Y-65903333D01*
X160909371Y-66098571D01*
X160870323Y-66254762D01*
X160831276Y-66332857D01*
X160792228Y-66371905D01*
X160714133Y-66410952D01*
X160636038Y-66410952D01*
X160557942Y-66371905D01*
X160518895Y-66332857D01*
X160479847Y-66254762D01*
X160440799Y-66098571D01*
X160440799Y-65903333D01*
X160479847Y-65747143D01*
X160518895Y-65669048D01*
X160557942Y-65630000D01*
X160636038Y-65590952D01*
X158956990Y-63636667D02*
X159347467Y-63636667D01*
X158878895Y-63870952D02*
X159152229Y-63050952D01*
X159425562Y-63870952D01*
X160128419Y-63870952D02*
X159659847Y-63870952D01*
X159894133Y-63870952D02*
X159894133Y-63050952D01*
X159816038Y-63168095D01*
X159737943Y-63246190D01*
X159659847Y-63285238D01*
X160596990Y-63402381D02*
X160518895Y-63363333D01*
X160479847Y-63324286D01*
X160440799Y-63246190D01*
X160440799Y-63207143D01*
X160479847Y-63129048D01*
X160518895Y-63090000D01*
X160596990Y-63050952D01*
X160753180Y-63050952D01*
X160831276Y-63090000D01*
X160870323Y-63129048D01*
X160909371Y-63207143D01*
X160909371Y-63246190D01*
X160870323Y-63324286D01*
X160831276Y-63363333D01*
X160753180Y-63402381D01*
X160596990Y-63402381D01*
X160518895Y-63441429D01*
X160479847Y-63480476D01*
X160440799Y-63558571D01*
X160440799Y-63714762D01*
X160479847Y-63792857D01*
X160518895Y-63831905D01*
X160596990Y-63870952D01*
X160753180Y-63870952D01*
X160831276Y-63831905D01*
X160870323Y-63792857D01*
X160909371Y-63714762D01*
X160909371Y-63558571D01*
X160870323Y-63480476D01*
X160831276Y-63441429D01*
X160753180Y-63402381D01*
X158956990Y-61096667D02*
X159347467Y-61096667D01*
X158878895Y-61330952D02*
X159152229Y-60510952D01*
X159425562Y-61330952D01*
X160128419Y-61330952D02*
X159659847Y-61330952D01*
X159894133Y-61330952D02*
X159894133Y-60510952D01*
X159816038Y-60628095D01*
X159737943Y-60706190D01*
X159659847Y-60745238D01*
X160831276Y-60510952D02*
X160675085Y-60510952D01*
X160596990Y-60550000D01*
X160557942Y-60589048D01*
X160479847Y-60706190D01*
X160440799Y-60862381D01*
X160440799Y-61174762D01*
X160479847Y-61252857D01*
X160518895Y-61291905D01*
X160596990Y-61330952D01*
X160753180Y-61330952D01*
X160831276Y-61291905D01*
X160870323Y-61252857D01*
X160909371Y-61174762D01*
X160909371Y-60979524D01*
X160870323Y-60901429D01*
X160831276Y-60862381D01*
X160753180Y-60823333D01*
X160596990Y-60823333D01*
X160518895Y-60862381D01*
X160479847Y-60901429D01*
X160440799Y-60979524D01*
X158956990Y-58556667D02*
X159347467Y-58556667D01*
X158878895Y-58790952D02*
X159152229Y-57970952D01*
X159425562Y-58790952D01*
X160128419Y-58790952D02*
X159659847Y-58790952D01*
X159894133Y-58790952D02*
X159894133Y-57970952D01*
X159816038Y-58088095D01*
X159737943Y-58166190D01*
X159659847Y-58205238D01*
X160831276Y-58244286D02*
X160831276Y-58790952D01*
X160636038Y-57931905D02*
X160440799Y-58517619D01*
X160948419Y-58517619D01*
X153963810Y-52613067D02*
X154354287Y-52613067D01*
X153885715Y-52847352D02*
X154159049Y-52027352D01*
X154432382Y-52847352D01*
X155135239Y-52847352D02*
X154666667Y-52847352D01*
X154900953Y-52847352D02*
X154900953Y-52027352D01*
X154822858Y-52144495D01*
X154744763Y-52222590D01*
X154666667Y-52261638D01*
X155916191Y-52847352D02*
X155447619Y-52847352D01*
X155681905Y-52847352D02*
X155681905Y-52027352D01*
X155603810Y-52144495D01*
X155525715Y-52222590D01*
X155447619Y-52261638D01*
X151814286Y-52613067D02*
X152204763Y-52613067D01*
X151736191Y-52847352D02*
X152009525Y-52027352D01*
X152282858Y-52847352D01*
X152595239Y-52847352D02*
X152751429Y-52847352D01*
X152829524Y-52808305D01*
X152868572Y-52769257D01*
X152946667Y-52652114D01*
X152985715Y-52495924D01*
X152985715Y-52183543D01*
X152946667Y-52105448D01*
X152907620Y-52066400D01*
X152829524Y-52027352D01*
X152673334Y-52027352D01*
X152595239Y-52066400D01*
X152556191Y-52105448D01*
X152517143Y-52183543D01*
X152517143Y-52378781D01*
X152556191Y-52456876D01*
X152595239Y-52495924D01*
X152673334Y-52534971D01*
X152829524Y-52534971D01*
X152907620Y-52495924D01*
X152946667Y-52456876D01*
X152985715Y-52378781D01*
X149274286Y-52663867D02*
X149664763Y-52663867D01*
X149196191Y-52898152D02*
X149469525Y-52078152D01*
X149742858Y-52898152D01*
X150367620Y-52351486D02*
X150367620Y-52898152D01*
X150172382Y-52039105D02*
X149977143Y-52624819D01*
X150484763Y-52624819D01*
X147456667Y-53194419D02*
X147456667Y-52803942D01*
X147690952Y-53272514D02*
X146870952Y-52999180D01*
X147690952Y-52725847D01*
X146949048Y-52491562D02*
X146910000Y-52452514D01*
X146870952Y-52374419D01*
X146870952Y-52179181D01*
X146910000Y-52101085D01*
X146949048Y-52062038D01*
X147027143Y-52022990D01*
X147105238Y-52022990D01*
X147222381Y-52062038D01*
X147690952Y-52530609D01*
X147690952Y-52022990D01*
X144916667Y-53194419D02*
X144916667Y-52803942D01*
X145150952Y-53272514D02*
X144330952Y-52999180D01*
X145150952Y-52725847D01*
X144330952Y-52296323D02*
X144330952Y-52218228D01*
X144370000Y-52140133D01*
X144409048Y-52101085D01*
X144487143Y-52062038D01*
X144643333Y-52022990D01*
X144838571Y-52022990D01*
X144994762Y-52062038D01*
X145072857Y-52101085D01*
X145111905Y-52140133D01*
X145150952Y-52218228D01*
X145150952Y-52296323D01*
X145111905Y-52374419D01*
X145072857Y-52413466D01*
X144994762Y-52452514D01*
X144838571Y-52491562D01*
X144643333Y-52491562D01*
X144487143Y-52452514D01*
X144409048Y-52413466D01*
X144370000Y-52374419D01*
X144330952Y-52296323D01*
X142610952Y-54053466D02*
X141790952Y-54053466D01*
X141790952Y-53858228D01*
X141830000Y-53741085D01*
X141908095Y-53662990D01*
X141986190Y-53623942D01*
X142142381Y-53584894D01*
X142259524Y-53584894D01*
X142415714Y-53623942D01*
X142493810Y-53662990D01*
X142571905Y-53741085D01*
X142610952Y-53858228D01*
X142610952Y-54053466D01*
X141790952Y-53311561D02*
X141790952Y-52803942D01*
X142103333Y-53077275D01*
X142103333Y-52960133D01*
X142142381Y-52882037D01*
X142181429Y-52842990D01*
X142259524Y-52803942D01*
X142454762Y-52803942D01*
X142532857Y-52842990D01*
X142571905Y-52882037D01*
X142610952Y-52960133D01*
X142610952Y-53194418D01*
X142571905Y-53272514D01*
X142532857Y-53311561D01*
X141790952Y-52296323D02*
X141790952Y-52218228D01*
X141830000Y-52140133D01*
X141869048Y-52101085D01*
X141947143Y-52062038D01*
X142103333Y-52022990D01*
X142298571Y-52022990D01*
X142454762Y-52062038D01*
X142532857Y-52101085D01*
X142571905Y-52140133D01*
X142610952Y-52218228D01*
X142610952Y-52296323D01*
X142571905Y-52374419D01*
X142532857Y-52413466D01*
X142454762Y-52452514D01*
X142298571Y-52491562D01*
X142103333Y-52491562D01*
X141947143Y-52452514D01*
X141869048Y-52413466D01*
X141830000Y-52374419D01*
X141790952Y-52296323D01*
X140070952Y-54053466D02*
X139250952Y-54053466D01*
X139250952Y-53858228D01*
X139290000Y-53741085D01*
X139368095Y-53662990D01*
X139446190Y-53623942D01*
X139602381Y-53584894D01*
X139719524Y-53584894D01*
X139875714Y-53623942D01*
X139953810Y-53662990D01*
X140031905Y-53741085D01*
X140070952Y-53858228D01*
X140070952Y-54053466D01*
X139329048Y-53272514D02*
X139290000Y-53233466D01*
X139250952Y-53155371D01*
X139250952Y-52960133D01*
X139290000Y-52882037D01*
X139329048Y-52842990D01*
X139407143Y-52803942D01*
X139485238Y-52803942D01*
X139602381Y-52842990D01*
X140070952Y-53311561D01*
X140070952Y-52803942D01*
X139250952Y-52530609D02*
X139250952Y-51983942D01*
X140070952Y-52335371D01*
X137530952Y-54053466D02*
X136710952Y-54053466D01*
X136710952Y-53858228D01*
X136750000Y-53741085D01*
X136828095Y-53662990D01*
X136906190Y-53623942D01*
X137062381Y-53584894D01*
X137179524Y-53584894D01*
X137335714Y-53623942D01*
X137413810Y-53662990D01*
X137491905Y-53741085D01*
X137530952Y-53858228D01*
X137530952Y-54053466D01*
X136789048Y-53272514D02*
X136750000Y-53233466D01*
X136710952Y-53155371D01*
X136710952Y-52960133D01*
X136750000Y-52882037D01*
X136789048Y-52842990D01*
X136867143Y-52803942D01*
X136945238Y-52803942D01*
X137062381Y-52842990D01*
X137530952Y-53311561D01*
X137530952Y-52803942D01*
X136710952Y-52062038D02*
X136710952Y-52452514D01*
X137101429Y-52491562D01*
X137062381Y-52452514D01*
X137023333Y-52374419D01*
X137023333Y-52179181D01*
X137062381Y-52101085D01*
X137101429Y-52062038D01*
X137179524Y-52022990D01*
X137374762Y-52022990D01*
X137452857Y-52062038D01*
X137491905Y-52101085D01*
X137530952Y-52179181D01*
X137530952Y-52374419D01*
X137491905Y-52452514D01*
X137452857Y-52491562D01*
X134990952Y-54053466D02*
X134170952Y-54053466D01*
X134170952Y-53858228D01*
X134210000Y-53741085D01*
X134288095Y-53662990D01*
X134366190Y-53623942D01*
X134522381Y-53584894D01*
X134639524Y-53584894D01*
X134795714Y-53623942D01*
X134873810Y-53662990D01*
X134951905Y-53741085D01*
X134990952Y-53858228D01*
X134990952Y-54053466D01*
X134249048Y-53272514D02*
X134210000Y-53233466D01*
X134170952Y-53155371D01*
X134170952Y-52960133D01*
X134210000Y-52882037D01*
X134249048Y-52842990D01*
X134327143Y-52803942D01*
X134405238Y-52803942D01*
X134522381Y-52842990D01*
X134990952Y-53311561D01*
X134990952Y-52803942D01*
X134249048Y-52491562D02*
X134210000Y-52452514D01*
X134170952Y-52374419D01*
X134170952Y-52179181D01*
X134210000Y-52101085D01*
X134249048Y-52062038D01*
X134327143Y-52022990D01*
X134405238Y-52022990D01*
X134522381Y-52062038D01*
X134990952Y-52530609D01*
X134990952Y-52022990D01*
X132450952Y-54053466D02*
X131630952Y-54053466D01*
X131630952Y-53858228D01*
X131670000Y-53741085D01*
X131748095Y-53662990D01*
X131826190Y-53623942D01*
X131982381Y-53584894D01*
X132099524Y-53584894D01*
X132255714Y-53623942D01*
X132333810Y-53662990D01*
X132411905Y-53741085D01*
X132450952Y-53858228D01*
X132450952Y-54053466D01*
X131709048Y-53272514D02*
X131670000Y-53233466D01*
X131630952Y-53155371D01*
X131630952Y-52960133D01*
X131670000Y-52882037D01*
X131709048Y-52842990D01*
X131787143Y-52803942D01*
X131865238Y-52803942D01*
X131982381Y-52842990D01*
X132450952Y-53311561D01*
X132450952Y-52803942D01*
X131630952Y-52296323D02*
X131630952Y-52218228D01*
X131670000Y-52140133D01*
X131709048Y-52101085D01*
X131787143Y-52062038D01*
X131943333Y-52022990D01*
X132138571Y-52022990D01*
X132294762Y-52062038D01*
X132372857Y-52101085D01*
X132411905Y-52140133D01*
X132450952Y-52218228D01*
X132450952Y-52296323D01*
X132411905Y-52374419D01*
X132372857Y-52413466D01*
X132294762Y-52452514D01*
X132138571Y-52491562D01*
X131943333Y-52491562D01*
X131787143Y-52452514D01*
X131709048Y-52413466D01*
X131670000Y-52374419D01*
X131630952Y-52296323D01*
X129910952Y-54053466D02*
X129090952Y-54053466D01*
X129090952Y-53858228D01*
X129130000Y-53741085D01*
X129208095Y-53662990D01*
X129286190Y-53623942D01*
X129442381Y-53584894D01*
X129559524Y-53584894D01*
X129715714Y-53623942D01*
X129793810Y-53662990D01*
X129871905Y-53741085D01*
X129910952Y-53858228D01*
X129910952Y-54053466D01*
X129910952Y-52803942D02*
X129910952Y-53272514D01*
X129910952Y-53038228D02*
X129090952Y-53038228D01*
X129208095Y-53116323D01*
X129286190Y-53194418D01*
X129325238Y-53272514D01*
X129442381Y-52335371D02*
X129403333Y-52413466D01*
X129364286Y-52452514D01*
X129286190Y-52491562D01*
X129247143Y-52491562D01*
X129169048Y-52452514D01*
X129130000Y-52413466D01*
X129090952Y-52335371D01*
X129090952Y-52179181D01*
X129130000Y-52101085D01*
X129169048Y-52062038D01*
X129247143Y-52022990D01*
X129286190Y-52022990D01*
X129364286Y-52062038D01*
X129403333Y-52101085D01*
X129442381Y-52179181D01*
X129442381Y-52335371D01*
X129481429Y-52413466D01*
X129520476Y-52452514D01*
X129598571Y-52491562D01*
X129754762Y-52491562D01*
X129832857Y-52452514D01*
X129871905Y-52413466D01*
X129910952Y-52335371D01*
X129910952Y-52179181D01*
X129871905Y-52101085D01*
X129832857Y-52062038D01*
X129754762Y-52022990D01*
X129598571Y-52022990D01*
X129520476Y-52062038D01*
X129481429Y-52101085D01*
X129442381Y-52179181D01*
X127370952Y-54053466D02*
X126550952Y-54053466D01*
X126550952Y-53858228D01*
X126590000Y-53741085D01*
X126668095Y-53662990D01*
X126746190Y-53623942D01*
X126902381Y-53584894D01*
X127019524Y-53584894D01*
X127175714Y-53623942D01*
X127253810Y-53662990D01*
X127331905Y-53741085D01*
X127370952Y-53858228D01*
X127370952Y-54053466D01*
X127370952Y-52803942D02*
X127370952Y-53272514D01*
X127370952Y-53038228D02*
X126550952Y-53038228D01*
X126668095Y-53116323D01*
X126746190Y-53194418D01*
X126785238Y-53272514D01*
X126550952Y-52101085D02*
X126550952Y-52257276D01*
X126590000Y-52335371D01*
X126629048Y-52374419D01*
X126746190Y-52452514D01*
X126902381Y-52491562D01*
X127214762Y-52491562D01*
X127292857Y-52452514D01*
X127331905Y-52413466D01*
X127370952Y-52335371D01*
X127370952Y-52179181D01*
X127331905Y-52101085D01*
X127292857Y-52062038D01*
X127214762Y-52022990D01*
X127019524Y-52022990D01*
X126941429Y-52062038D01*
X126902381Y-52101085D01*
X126863333Y-52179181D01*
X126863333Y-52335371D01*
X126902381Y-52413466D01*
X126941429Y-52452514D01*
X127019524Y-52491562D01*
X124830952Y-54053466D02*
X124010952Y-54053466D01*
X124010952Y-53858228D01*
X124050000Y-53741085D01*
X124128095Y-53662990D01*
X124206190Y-53623942D01*
X124362381Y-53584894D01*
X124479524Y-53584894D01*
X124635714Y-53623942D01*
X124713810Y-53662990D01*
X124791905Y-53741085D01*
X124830952Y-53858228D01*
X124830952Y-54053466D01*
X124830952Y-52803942D02*
X124830952Y-53272514D01*
X124830952Y-53038228D02*
X124010952Y-53038228D01*
X124128095Y-53116323D01*
X124206190Y-53194418D01*
X124245238Y-53272514D01*
X124284286Y-52101085D02*
X124830952Y-52101085D01*
X123971905Y-52296323D02*
X124557619Y-52491562D01*
X124557619Y-51983942D01*
X122290952Y-54053466D02*
X121470952Y-54053466D01*
X121470952Y-53858228D01*
X121510000Y-53741085D01*
X121588095Y-53662990D01*
X121666190Y-53623942D01*
X121822381Y-53584894D01*
X121939524Y-53584894D01*
X122095714Y-53623942D01*
X122173810Y-53662990D01*
X122251905Y-53741085D01*
X122290952Y-53858228D01*
X122290952Y-54053466D01*
X122290952Y-52803942D02*
X122290952Y-53272514D01*
X122290952Y-53038228D02*
X121470952Y-53038228D01*
X121588095Y-53116323D01*
X121666190Y-53194418D01*
X121705238Y-53272514D01*
X121549048Y-52491562D02*
X121510000Y-52452514D01*
X121470952Y-52374419D01*
X121470952Y-52179181D01*
X121510000Y-52101085D01*
X121549048Y-52062038D01*
X121627143Y-52022990D01*
X121705238Y-52022990D01*
X121822381Y-52062038D01*
X122290952Y-52530609D01*
X122290952Y-52022990D01*
X119750952Y-54053466D02*
X118930952Y-54053466D01*
X118930952Y-53858228D01*
X118970000Y-53741085D01*
X119048095Y-53662990D01*
X119126190Y-53623942D01*
X119282381Y-53584894D01*
X119399524Y-53584894D01*
X119555714Y-53623942D01*
X119633810Y-53662990D01*
X119711905Y-53741085D01*
X119750952Y-53858228D01*
X119750952Y-54053466D01*
X119750952Y-52803942D02*
X119750952Y-53272514D01*
X119750952Y-53038228D02*
X118930952Y-53038228D01*
X119048095Y-53116323D01*
X119126190Y-53194418D01*
X119165238Y-53272514D01*
X118930952Y-52296323D02*
X118930952Y-52218228D01*
X118970000Y-52140133D01*
X119009048Y-52101085D01*
X119087143Y-52062038D01*
X119243333Y-52022990D01*
X119438571Y-52022990D01*
X119594762Y-52062038D01*
X119672857Y-52101085D01*
X119711905Y-52140133D01*
X119750952Y-52218228D01*
X119750952Y-52296323D01*
X119711905Y-52374419D01*
X119672857Y-52413466D01*
X119594762Y-52452514D01*
X119438571Y-52491562D01*
X119243333Y-52491562D01*
X119087143Y-52452514D01*
X119009048Y-52413466D01*
X118970000Y-52374419D01*
X118930952Y-52296323D01*
X117210952Y-53272514D02*
X116390952Y-53272514D01*
X116390952Y-53077276D01*
X116430000Y-52960133D01*
X116508095Y-52882038D01*
X116586190Y-52842990D01*
X116742381Y-52803942D01*
X116859524Y-52803942D01*
X117015714Y-52842990D01*
X117093810Y-52882038D01*
X117171905Y-52960133D01*
X117210952Y-53077276D01*
X117210952Y-53272514D01*
X116742381Y-52335371D02*
X116703333Y-52413466D01*
X116664286Y-52452514D01*
X116586190Y-52491562D01*
X116547143Y-52491562D01*
X116469048Y-52452514D01*
X116430000Y-52413466D01*
X116390952Y-52335371D01*
X116390952Y-52179181D01*
X116430000Y-52101085D01*
X116469048Y-52062038D01*
X116547143Y-52022990D01*
X116586190Y-52022990D01*
X116664286Y-52062038D01*
X116703333Y-52101085D01*
X116742381Y-52179181D01*
X116742381Y-52335371D01*
X116781429Y-52413466D01*
X116820476Y-52452514D01*
X116898571Y-52491562D01*
X117054762Y-52491562D01*
X117132857Y-52452514D01*
X117171905Y-52413466D01*
X117210952Y-52335371D01*
X117210952Y-52179181D01*
X117171905Y-52101085D01*
X117132857Y-52062038D01*
X117054762Y-52022990D01*
X116898571Y-52022990D01*
X116820476Y-52062038D01*
X116781429Y-52101085D01*
X116742381Y-52179181D01*
X114670952Y-53272514D02*
X113850952Y-53272514D01*
X113850952Y-53077276D01*
X113890000Y-52960133D01*
X113968095Y-52882038D01*
X114046190Y-52842990D01*
X114202381Y-52803942D01*
X114319524Y-52803942D01*
X114475714Y-52842990D01*
X114553810Y-52882038D01*
X114631905Y-52960133D01*
X114670952Y-53077276D01*
X114670952Y-53272514D01*
X113850952Y-52101085D02*
X113850952Y-52257276D01*
X113890000Y-52335371D01*
X113929048Y-52374419D01*
X114046190Y-52452514D01*
X114202381Y-52491562D01*
X114514762Y-52491562D01*
X114592857Y-52452514D01*
X114631905Y-52413466D01*
X114670952Y-52335371D01*
X114670952Y-52179181D01*
X114631905Y-52101085D01*
X114592857Y-52062038D01*
X114514762Y-52022990D01*
X114319524Y-52022990D01*
X114241429Y-52062038D01*
X114202381Y-52101085D01*
X114163333Y-52179181D01*
X114163333Y-52335371D01*
X114202381Y-52413466D01*
X114241429Y-52452514D01*
X114319524Y-52491562D01*
X112130952Y-53272514D02*
X111310952Y-53272514D01*
X111310952Y-53077276D01*
X111350000Y-52960133D01*
X111428095Y-52882038D01*
X111506190Y-52842990D01*
X111662381Y-52803942D01*
X111779524Y-52803942D01*
X111935714Y-52842990D01*
X112013810Y-52882038D01*
X112091905Y-52960133D01*
X112130952Y-53077276D01*
X112130952Y-53272514D01*
X111584286Y-52101085D02*
X112130952Y-52101085D01*
X111271905Y-52296323D02*
X111857619Y-52491562D01*
X111857619Y-51983942D01*
X109590952Y-53272514D02*
X108770952Y-53272514D01*
X108770952Y-53077276D01*
X108810000Y-52960133D01*
X108888095Y-52882038D01*
X108966190Y-52842990D01*
X109122381Y-52803942D01*
X109239524Y-52803942D01*
X109395714Y-52842990D01*
X109473810Y-52882038D01*
X109551905Y-52960133D01*
X109590952Y-53077276D01*
X109590952Y-53272514D01*
X108849048Y-52491562D02*
X108810000Y-52452514D01*
X108770952Y-52374419D01*
X108770952Y-52179181D01*
X108810000Y-52101085D01*
X108849048Y-52062038D01*
X108927143Y-52022990D01*
X109005238Y-52022990D01*
X109122381Y-52062038D01*
X109590952Y-52530609D01*
X109590952Y-52022990D01*
X107050952Y-53272514D02*
X106230952Y-53272514D01*
X106230952Y-53077276D01*
X106270000Y-52960133D01*
X106348095Y-52882038D01*
X106426190Y-52842990D01*
X106582381Y-52803942D01*
X106699524Y-52803942D01*
X106855714Y-52842990D01*
X106933810Y-52882038D01*
X107011905Y-52960133D01*
X107050952Y-53077276D01*
X107050952Y-53272514D01*
X106230952Y-52296323D02*
X106230952Y-52218228D01*
X106270000Y-52140133D01*
X106309048Y-52101085D01*
X106387143Y-52062038D01*
X106543333Y-52022990D01*
X106738571Y-52022990D01*
X106894762Y-52062038D01*
X106972857Y-52101085D01*
X107011905Y-52140133D01*
X107050952Y-52218228D01*
X107050952Y-52296323D01*
X107011905Y-52374419D01*
X106972857Y-52413466D01*
X106894762Y-52452514D01*
X106738571Y-52491562D01*
X106543333Y-52491562D01*
X106387143Y-52452514D01*
X106309048Y-52413466D01*
X106270000Y-52374419D01*
X106230952Y-52296323D01*
X155076667Y-41906210D02*
X155076667Y-41515733D01*
X155310952Y-41984305D02*
X154490952Y-41710971D01*
X155310952Y-41437638D01*
X155310952Y-40734781D02*
X155310952Y-41203353D01*
X155310952Y-40969067D02*
X154490952Y-40969067D01*
X154608095Y-41047162D01*
X154686190Y-41125257D01*
X154725238Y-41203353D01*
X154569048Y-40422401D02*
X154530000Y-40383353D01*
X154490952Y-40305258D01*
X154490952Y-40110020D01*
X154530000Y-40031924D01*
X154569048Y-39992877D01*
X154647143Y-39953829D01*
X154725238Y-39953829D01*
X154842381Y-39992877D01*
X155310952Y-40461448D01*
X155310952Y-39953829D01*
X152536667Y-41906210D02*
X152536667Y-41515733D01*
X152770952Y-41984305D02*
X151950952Y-41710971D01*
X152770952Y-41437638D01*
X152770952Y-40734781D02*
X152770952Y-41203353D01*
X152770952Y-40969067D02*
X151950952Y-40969067D01*
X152068095Y-41047162D01*
X152146190Y-41125257D01*
X152185238Y-41203353D01*
X151950952Y-40227162D02*
X151950952Y-40149067D01*
X151990000Y-40070972D01*
X152029048Y-40031924D01*
X152107143Y-39992877D01*
X152263333Y-39953829D01*
X152458571Y-39953829D01*
X152614762Y-39992877D01*
X152692857Y-40031924D01*
X152731905Y-40070972D01*
X152770952Y-40149067D01*
X152770952Y-40227162D01*
X152731905Y-40305258D01*
X152692857Y-40344305D01*
X152614762Y-40383353D01*
X152458571Y-40422401D01*
X152263333Y-40422401D01*
X152107143Y-40383353D01*
X152029048Y-40344305D01*
X151990000Y-40305258D01*
X151950952Y-40227162D01*
X149996667Y-41906210D02*
X149996667Y-41515733D01*
X150230952Y-41984305D02*
X149410952Y-41710971D01*
X150230952Y-41437638D01*
X149410952Y-40773829D02*
X149410952Y-41164305D01*
X149801429Y-41203353D01*
X149762381Y-41164305D01*
X149723333Y-41086210D01*
X149723333Y-40890972D01*
X149762381Y-40812876D01*
X149801429Y-40773829D01*
X149879524Y-40734781D01*
X150074762Y-40734781D01*
X150152857Y-40773829D01*
X150191905Y-40812876D01*
X150230952Y-40890972D01*
X150230952Y-41086210D01*
X150191905Y-41164305D01*
X150152857Y-41203353D01*
X147456667Y-41906210D02*
X147456667Y-41515733D01*
X147690952Y-41984305D02*
X146870952Y-41710971D01*
X147690952Y-41437638D01*
X146870952Y-41242400D02*
X146870952Y-40734781D01*
X147183333Y-41008114D01*
X147183333Y-40890972D01*
X147222381Y-40812876D01*
X147261429Y-40773829D01*
X147339524Y-40734781D01*
X147534762Y-40734781D01*
X147612857Y-40773829D01*
X147651905Y-40812876D01*
X147690952Y-40890972D01*
X147690952Y-41125257D01*
X147651905Y-41203353D01*
X147612857Y-41242400D01*
X144916667Y-41906210D02*
X144916667Y-41515733D01*
X145150952Y-41984305D02*
X144330952Y-41710971D01*
X145150952Y-41437638D01*
X145150952Y-40734781D02*
X145150952Y-41203353D01*
X145150952Y-40969067D02*
X144330952Y-40969067D01*
X144448095Y-41047162D01*
X144526190Y-41125257D01*
X144565238Y-41203353D01*
X142610952Y-41867162D02*
X141790952Y-41867162D01*
X141790952Y-41671924D01*
X141830000Y-41554781D01*
X141908095Y-41476686D01*
X141986190Y-41437638D01*
X142142381Y-41398590D01*
X142259524Y-41398590D01*
X142415714Y-41437638D01*
X142493810Y-41476686D01*
X142571905Y-41554781D01*
X142610952Y-41671924D01*
X142610952Y-41867162D01*
X141790952Y-41125257D02*
X141790952Y-40617638D01*
X142103333Y-40890971D01*
X142103333Y-40773829D01*
X142142381Y-40695733D01*
X142181429Y-40656686D01*
X142259524Y-40617638D01*
X142454762Y-40617638D01*
X142532857Y-40656686D01*
X142571905Y-40695733D01*
X142610952Y-40773829D01*
X142610952Y-41008114D01*
X142571905Y-41086210D01*
X142532857Y-41125257D01*
X142610952Y-39836686D02*
X142610952Y-40305258D01*
X142610952Y-40070972D02*
X141790952Y-40070972D01*
X141908095Y-40149067D01*
X141986190Y-40227162D01*
X142025238Y-40305258D01*
X140070952Y-41867162D02*
X139250952Y-41867162D01*
X139250952Y-41671924D01*
X139290000Y-41554781D01*
X139368095Y-41476686D01*
X139446190Y-41437638D01*
X139602381Y-41398590D01*
X139719524Y-41398590D01*
X139875714Y-41437638D01*
X139953810Y-41476686D01*
X140031905Y-41554781D01*
X140070952Y-41671924D01*
X140070952Y-41867162D01*
X139329048Y-41086210D02*
X139290000Y-41047162D01*
X139250952Y-40969067D01*
X139250952Y-40773829D01*
X139290000Y-40695733D01*
X139329048Y-40656686D01*
X139407143Y-40617638D01*
X139485238Y-40617638D01*
X139602381Y-40656686D01*
X140070952Y-41125257D01*
X140070952Y-40617638D01*
X139602381Y-40149067D02*
X139563333Y-40227162D01*
X139524286Y-40266210D01*
X139446190Y-40305258D01*
X139407143Y-40305258D01*
X139329048Y-40266210D01*
X139290000Y-40227162D01*
X139250952Y-40149067D01*
X139250952Y-39992877D01*
X139290000Y-39914781D01*
X139329048Y-39875734D01*
X139407143Y-39836686D01*
X139446190Y-39836686D01*
X139524286Y-39875734D01*
X139563333Y-39914781D01*
X139602381Y-39992877D01*
X139602381Y-40149067D01*
X139641429Y-40227162D01*
X139680476Y-40266210D01*
X139758571Y-40305258D01*
X139914762Y-40305258D01*
X139992857Y-40266210D01*
X140031905Y-40227162D01*
X140070952Y-40149067D01*
X140070952Y-39992877D01*
X140031905Y-39914781D01*
X139992857Y-39875734D01*
X139914762Y-39836686D01*
X139758571Y-39836686D01*
X139680476Y-39875734D01*
X139641429Y-39914781D01*
X139602381Y-39992877D01*
X137530952Y-41867162D02*
X136710952Y-41867162D01*
X136710952Y-41671924D01*
X136750000Y-41554781D01*
X136828095Y-41476686D01*
X136906190Y-41437638D01*
X137062381Y-41398590D01*
X137179524Y-41398590D01*
X137335714Y-41437638D01*
X137413810Y-41476686D01*
X137491905Y-41554781D01*
X137530952Y-41671924D01*
X137530952Y-41867162D01*
X136789048Y-41086210D02*
X136750000Y-41047162D01*
X136710952Y-40969067D01*
X136710952Y-40773829D01*
X136750000Y-40695733D01*
X136789048Y-40656686D01*
X136867143Y-40617638D01*
X136945238Y-40617638D01*
X137062381Y-40656686D01*
X137530952Y-41125257D01*
X137530952Y-40617638D01*
X136710952Y-39914781D02*
X136710952Y-40070972D01*
X136750000Y-40149067D01*
X136789048Y-40188115D01*
X136906190Y-40266210D01*
X137062381Y-40305258D01*
X137374762Y-40305258D01*
X137452857Y-40266210D01*
X137491905Y-40227162D01*
X137530952Y-40149067D01*
X137530952Y-39992877D01*
X137491905Y-39914781D01*
X137452857Y-39875734D01*
X137374762Y-39836686D01*
X137179524Y-39836686D01*
X137101429Y-39875734D01*
X137062381Y-39914781D01*
X137023333Y-39992877D01*
X137023333Y-40149067D01*
X137062381Y-40227162D01*
X137101429Y-40266210D01*
X137179524Y-40305258D01*
X134990952Y-41867162D02*
X134170952Y-41867162D01*
X134170952Y-41671924D01*
X134210000Y-41554781D01*
X134288095Y-41476686D01*
X134366190Y-41437638D01*
X134522381Y-41398590D01*
X134639524Y-41398590D01*
X134795714Y-41437638D01*
X134873810Y-41476686D01*
X134951905Y-41554781D01*
X134990952Y-41671924D01*
X134990952Y-41867162D01*
X134249048Y-41086210D02*
X134210000Y-41047162D01*
X134170952Y-40969067D01*
X134170952Y-40773829D01*
X134210000Y-40695733D01*
X134249048Y-40656686D01*
X134327143Y-40617638D01*
X134405238Y-40617638D01*
X134522381Y-40656686D01*
X134990952Y-41125257D01*
X134990952Y-40617638D01*
X134444286Y-39914781D02*
X134990952Y-39914781D01*
X134131905Y-40110019D02*
X134717619Y-40305258D01*
X134717619Y-39797638D01*
X132450952Y-41867162D02*
X131630952Y-41867162D01*
X131630952Y-41671924D01*
X131670000Y-41554781D01*
X131748095Y-41476686D01*
X131826190Y-41437638D01*
X131982381Y-41398590D01*
X132099524Y-41398590D01*
X132255714Y-41437638D01*
X132333810Y-41476686D01*
X132411905Y-41554781D01*
X132450952Y-41671924D01*
X132450952Y-41867162D01*
X131709048Y-41086210D02*
X131670000Y-41047162D01*
X131630952Y-40969067D01*
X131630952Y-40773829D01*
X131670000Y-40695733D01*
X131709048Y-40656686D01*
X131787143Y-40617638D01*
X131865238Y-40617638D01*
X131982381Y-40656686D01*
X132450952Y-41125257D01*
X132450952Y-40617638D01*
X132450952Y-39836686D02*
X132450952Y-40305258D01*
X132450952Y-40070972D02*
X131630952Y-40070972D01*
X131748095Y-40149067D01*
X131826190Y-40227162D01*
X131865238Y-40305258D01*
X129910952Y-41867162D02*
X129090952Y-41867162D01*
X129090952Y-41671924D01*
X129130000Y-41554781D01*
X129208095Y-41476686D01*
X129286190Y-41437638D01*
X129442381Y-41398590D01*
X129559524Y-41398590D01*
X129715714Y-41437638D01*
X129793810Y-41476686D01*
X129871905Y-41554781D01*
X129910952Y-41671924D01*
X129910952Y-41867162D01*
X129910952Y-40617638D02*
X129910952Y-41086210D01*
X129910952Y-40851924D02*
X129090952Y-40851924D01*
X129208095Y-40930019D01*
X129286190Y-41008114D01*
X129325238Y-41086210D01*
X129910952Y-40227162D02*
X129910952Y-40070972D01*
X129871905Y-39992877D01*
X129832857Y-39953829D01*
X129715714Y-39875734D01*
X129559524Y-39836686D01*
X129247143Y-39836686D01*
X129169048Y-39875734D01*
X129130000Y-39914781D01*
X129090952Y-39992877D01*
X129090952Y-40149067D01*
X129130000Y-40227162D01*
X129169048Y-40266210D01*
X129247143Y-40305258D01*
X129442381Y-40305258D01*
X129520476Y-40266210D01*
X129559524Y-40227162D01*
X129598571Y-40149067D01*
X129598571Y-39992877D01*
X129559524Y-39914781D01*
X129520476Y-39875734D01*
X129442381Y-39836686D01*
X127370952Y-41867162D02*
X126550952Y-41867162D01*
X126550952Y-41671924D01*
X126590000Y-41554781D01*
X126668095Y-41476686D01*
X126746190Y-41437638D01*
X126902381Y-41398590D01*
X127019524Y-41398590D01*
X127175714Y-41437638D01*
X127253810Y-41476686D01*
X127331905Y-41554781D01*
X127370952Y-41671924D01*
X127370952Y-41867162D01*
X127370952Y-40617638D02*
X127370952Y-41086210D01*
X127370952Y-40851924D02*
X126550952Y-40851924D01*
X126668095Y-40930019D01*
X126746190Y-41008114D01*
X126785238Y-41086210D01*
X126550952Y-40344305D02*
X126550952Y-39797638D01*
X127370952Y-40149067D01*
X124830952Y-41867162D02*
X124010952Y-41867162D01*
X124010952Y-41671924D01*
X124050000Y-41554781D01*
X124128095Y-41476686D01*
X124206190Y-41437638D01*
X124362381Y-41398590D01*
X124479524Y-41398590D01*
X124635714Y-41437638D01*
X124713810Y-41476686D01*
X124791905Y-41554781D01*
X124830952Y-41671924D01*
X124830952Y-41867162D01*
X124830952Y-40617638D02*
X124830952Y-41086210D01*
X124830952Y-40851924D02*
X124010952Y-40851924D01*
X124128095Y-40930019D01*
X124206190Y-41008114D01*
X124245238Y-41086210D01*
X124010952Y-39875734D02*
X124010952Y-40266210D01*
X124401429Y-40305258D01*
X124362381Y-40266210D01*
X124323333Y-40188115D01*
X124323333Y-39992877D01*
X124362381Y-39914781D01*
X124401429Y-39875734D01*
X124479524Y-39836686D01*
X124674762Y-39836686D01*
X124752857Y-39875734D01*
X124791905Y-39914781D01*
X124830952Y-39992877D01*
X124830952Y-40188115D01*
X124791905Y-40266210D01*
X124752857Y-40305258D01*
X122290952Y-41867162D02*
X121470952Y-41867162D01*
X121470952Y-41671924D01*
X121510000Y-41554781D01*
X121588095Y-41476686D01*
X121666190Y-41437638D01*
X121822381Y-41398590D01*
X121939524Y-41398590D01*
X122095714Y-41437638D01*
X122173810Y-41476686D01*
X122251905Y-41554781D01*
X122290952Y-41671924D01*
X122290952Y-41867162D01*
X122290952Y-40617638D02*
X122290952Y-41086210D01*
X122290952Y-40851924D02*
X121470952Y-40851924D01*
X121588095Y-40930019D01*
X121666190Y-41008114D01*
X121705238Y-41086210D01*
X121470952Y-40344305D02*
X121470952Y-39836686D01*
X121783333Y-40110019D01*
X121783333Y-39992877D01*
X121822381Y-39914781D01*
X121861429Y-39875734D01*
X121939524Y-39836686D01*
X122134762Y-39836686D01*
X122212857Y-39875734D01*
X122251905Y-39914781D01*
X122290952Y-39992877D01*
X122290952Y-40227162D01*
X122251905Y-40305258D01*
X122212857Y-40344305D01*
X119750952Y-41867162D02*
X118930952Y-41867162D01*
X118930952Y-41671924D01*
X118970000Y-41554781D01*
X119048095Y-41476686D01*
X119126190Y-41437638D01*
X119282381Y-41398590D01*
X119399524Y-41398590D01*
X119555714Y-41437638D01*
X119633810Y-41476686D01*
X119711905Y-41554781D01*
X119750952Y-41671924D01*
X119750952Y-41867162D01*
X119750952Y-40617638D02*
X119750952Y-41086210D01*
X119750952Y-40851924D02*
X118930952Y-40851924D01*
X119048095Y-40930019D01*
X119126190Y-41008114D01*
X119165238Y-41086210D01*
X119750952Y-39836686D02*
X119750952Y-40305258D01*
X119750952Y-40070972D02*
X118930952Y-40070972D01*
X119048095Y-40149067D01*
X119126190Y-40227162D01*
X119165238Y-40305258D01*
X117210952Y-41867162D02*
X116390952Y-41867162D01*
X116390952Y-41671924D01*
X116430000Y-41554781D01*
X116508095Y-41476686D01*
X116586190Y-41437638D01*
X116742381Y-41398590D01*
X116859524Y-41398590D01*
X117015714Y-41437638D01*
X117093810Y-41476686D01*
X117171905Y-41554781D01*
X117210952Y-41671924D01*
X117210952Y-41867162D01*
X117210952Y-41008114D02*
X117210952Y-40851924D01*
X117171905Y-40773829D01*
X117132857Y-40734781D01*
X117015714Y-40656686D01*
X116859524Y-40617638D01*
X116547143Y-40617638D01*
X116469048Y-40656686D01*
X116430000Y-40695733D01*
X116390952Y-40773829D01*
X116390952Y-40930019D01*
X116430000Y-41008114D01*
X116469048Y-41047162D01*
X116547143Y-41086210D01*
X116742381Y-41086210D01*
X116820476Y-41047162D01*
X116859524Y-41008114D01*
X116898571Y-40930019D01*
X116898571Y-40773829D01*
X116859524Y-40695733D01*
X116820476Y-40656686D01*
X116742381Y-40617638D01*
X114670952Y-41867162D02*
X113850952Y-41867162D01*
X113850952Y-41671924D01*
X113890000Y-41554781D01*
X113968095Y-41476686D01*
X114046190Y-41437638D01*
X114202381Y-41398590D01*
X114319524Y-41398590D01*
X114475714Y-41437638D01*
X114553810Y-41476686D01*
X114631905Y-41554781D01*
X114670952Y-41671924D01*
X114670952Y-41867162D01*
X113850952Y-41125257D02*
X113850952Y-40578590D01*
X114670952Y-40930019D01*
X112130952Y-41854838D02*
X111310952Y-41854838D01*
X111310952Y-41659600D01*
X111350000Y-41542457D01*
X111428095Y-41464362D01*
X111506190Y-41425314D01*
X111662381Y-41386266D01*
X111779524Y-41386266D01*
X111935714Y-41425314D01*
X112013810Y-41464362D01*
X112091905Y-41542457D01*
X112130952Y-41659600D01*
X112130952Y-41854838D01*
X111310952Y-40644362D02*
X111310952Y-41034838D01*
X111701429Y-41073886D01*
X111662381Y-41034838D01*
X111623333Y-40956743D01*
X111623333Y-40761505D01*
X111662381Y-40683409D01*
X111701429Y-40644362D01*
X111779524Y-40605314D01*
X111974762Y-40605314D01*
X112052857Y-40644362D01*
X112091905Y-40683409D01*
X112130952Y-40761505D01*
X112130952Y-40956743D01*
X112091905Y-41034838D01*
X112052857Y-41073886D01*
X109590952Y-41867162D02*
X108770952Y-41867162D01*
X108770952Y-41671924D01*
X108810000Y-41554781D01*
X108888095Y-41476686D01*
X108966190Y-41437638D01*
X109122381Y-41398590D01*
X109239524Y-41398590D01*
X109395714Y-41437638D01*
X109473810Y-41476686D01*
X109551905Y-41554781D01*
X109590952Y-41671924D01*
X109590952Y-41867162D01*
X108770952Y-41125257D02*
X108770952Y-40617638D01*
X109083333Y-40890971D01*
X109083333Y-40773829D01*
X109122381Y-40695733D01*
X109161429Y-40656686D01*
X109239524Y-40617638D01*
X109434762Y-40617638D01*
X109512857Y-40656686D01*
X109551905Y-40695733D01*
X109590952Y-40773829D01*
X109590952Y-41008114D01*
X109551905Y-41086210D01*
X109512857Y-41125257D01*
X107050952Y-41867162D02*
X106230952Y-41867162D01*
X106230952Y-41671924D01*
X106270000Y-41554781D01*
X106348095Y-41476686D01*
X106426190Y-41437638D01*
X106582381Y-41398590D01*
X106699524Y-41398590D01*
X106855714Y-41437638D01*
X106933810Y-41476686D01*
X107011905Y-41554781D01*
X107050952Y-41671924D01*
X107050952Y-41867162D01*
X107050952Y-40617638D02*
X107050952Y-41086210D01*
X107050952Y-40851924D02*
X106230952Y-40851924D01*
X106348095Y-40930019D01*
X106426190Y-41008114D01*
X106465238Y-41086210D01*
X97466667Y-85509524D02*
X97466667Y-85033333D01*
X97752381Y-85604762D02*
X96752381Y-85271429D01*
X97752381Y-84938095D01*
X96752381Y-84747619D02*
X96752381Y-84176190D01*
X97752381Y-84461905D02*
X96752381Y-84461905D01*
X97704762Y-83890476D02*
X97752381Y-83747619D01*
X97752381Y-83509523D01*
X97704762Y-83414285D01*
X97657143Y-83366666D01*
X97561905Y-83319047D01*
X97466667Y-83319047D01*
X97371429Y-83366666D01*
X97323810Y-83414285D01*
X97276190Y-83509523D01*
X97228571Y-83700000D01*
X97180952Y-83795238D01*
X97133333Y-83842857D01*
X97038095Y-83890476D01*
X96942857Y-83890476D01*
X96847619Y-83842857D01*
X96800000Y-83795238D01*
X96752381Y-83700000D01*
X96752381Y-83461904D01*
X96800000Y-83319047D01*
X97466667Y-82938095D02*
X97466667Y-82461904D01*
X97752381Y-83033333D02*
X96752381Y-82700000D01*
X97752381Y-82366666D01*
X97752381Y-82033333D02*
X96752381Y-82033333D01*
X97466667Y-81699999D01*
X96752381Y-81366666D01*
X97752381Y-81366666D01*
X97228571Y-80890476D02*
X97228571Y-80557142D01*
X97752381Y-80414285D02*
X97752381Y-80890476D01*
X96752381Y-80890476D01*
X96752381Y-80414285D01*
X96752381Y-80080952D02*
X96752381Y-79414285D01*
X97752381Y-79842857D01*
X96752381Y-78842857D02*
X96752381Y-78747618D01*
X96800000Y-78652380D01*
X96847619Y-78604761D01*
X96942857Y-78557142D01*
X97133333Y-78509523D01*
X97371429Y-78509523D01*
X97561905Y-78557142D01*
X97657143Y-78604761D01*
X97704762Y-78652380D01*
X97752381Y-78747618D01*
X97752381Y-78842857D01*
X97704762Y-78938095D01*
X97657143Y-78985714D01*
X97561905Y-79033333D01*
X97371429Y-79080952D01*
X97133333Y-79080952D01*
X96942857Y-79033333D01*
X96847619Y-78985714D01*
X96800000Y-78938095D01*
X96752381Y-78842857D01*
X97752381Y-78080952D02*
X96752381Y-78080952D01*
X97752381Y-77509523D01*
X96752381Y-77509523D01*
X97228571Y-75938094D02*
X97276190Y-75795237D01*
X97323810Y-75747618D01*
X97419048Y-75699999D01*
X97561905Y-75699999D01*
X97657143Y-75747618D01*
X97704762Y-75795237D01*
X97752381Y-75890475D01*
X97752381Y-76271428D01*
X96752381Y-76271428D01*
X96752381Y-75938094D01*
X96800000Y-75842856D01*
X96847619Y-75795237D01*
X96942857Y-75747618D01*
X97038095Y-75747618D01*
X97133333Y-75795237D01*
X97180952Y-75842856D01*
X97228571Y-75938094D01*
X97228571Y-76271428D01*
X97752381Y-75271428D02*
X97085714Y-75271428D01*
X97276190Y-75271428D02*
X97180952Y-75223809D01*
X97133333Y-75176190D01*
X97085714Y-75080952D01*
X97085714Y-74985713D01*
X97704762Y-74271427D02*
X97752381Y-74366665D01*
X97752381Y-74557142D01*
X97704762Y-74652380D01*
X97609524Y-74699999D01*
X97228571Y-74699999D01*
X97133333Y-74652380D01*
X97085714Y-74557142D01*
X97085714Y-74366665D01*
X97133333Y-74271427D01*
X97228571Y-74223808D01*
X97323810Y-74223808D01*
X97419048Y-74699999D01*
X97752381Y-73366665D02*
X97228571Y-73366665D01*
X97133333Y-73414284D01*
X97085714Y-73509522D01*
X97085714Y-73699999D01*
X97133333Y-73795237D01*
X97704762Y-73366665D02*
X97752381Y-73461903D01*
X97752381Y-73699999D01*
X97704762Y-73795237D01*
X97609524Y-73842856D01*
X97514286Y-73842856D01*
X97419048Y-73795237D01*
X97371429Y-73699999D01*
X97371429Y-73461903D01*
X97323810Y-73366665D01*
X97752381Y-72890475D02*
X96752381Y-72890475D01*
X97371429Y-72795237D02*
X97752381Y-72509522D01*
X97085714Y-72509522D02*
X97466667Y-72890475D01*
X97752381Y-71938094D02*
X97704762Y-72033332D01*
X97657143Y-72080951D01*
X97561905Y-72128570D01*
X97276190Y-72128570D01*
X97180952Y-72080951D01*
X97133333Y-72033332D01*
X97085714Y-71938094D01*
X97085714Y-71795236D01*
X97133333Y-71699998D01*
X97180952Y-71652379D01*
X97276190Y-71604760D01*
X97561905Y-71604760D01*
X97657143Y-71652379D01*
X97704762Y-71699998D01*
X97752381Y-71795236D01*
X97752381Y-71938094D01*
X97085714Y-70747617D02*
X97752381Y-70747617D01*
X97085714Y-71176189D02*
X97609524Y-71176189D01*
X97704762Y-71128570D01*
X97752381Y-71033332D01*
X97752381Y-70890474D01*
X97704762Y-70795236D01*
X97657143Y-70747617D01*
X97085714Y-70414284D02*
X97085714Y-70033332D01*
X96752381Y-70271427D02*
X97609524Y-70271427D01*
X97704762Y-70223808D01*
X97752381Y-70128570D01*
X97752381Y-70033332D01*
X97752381Y-68366664D02*
X97276190Y-68699998D01*
X97752381Y-68938093D02*
X96752381Y-68938093D01*
X96752381Y-68557140D01*
X96800000Y-68461902D01*
X96847619Y-68414283D01*
X96942857Y-68366664D01*
X97085714Y-68366664D01*
X97180952Y-68414283D01*
X97228571Y-68461902D01*
X97276190Y-68557140D01*
X97276190Y-68938093D01*
X97704762Y-67557140D02*
X97752381Y-67652378D01*
X97752381Y-67842855D01*
X97704762Y-67938093D01*
X97609524Y-67985712D01*
X97228571Y-67985712D01*
X97133333Y-67938093D01*
X97085714Y-67842855D01*
X97085714Y-67652378D01*
X97133333Y-67557140D01*
X97228571Y-67509521D01*
X97323810Y-67509521D01*
X97419048Y-67985712D01*
X97085714Y-67176188D02*
X97752381Y-66938093D01*
X97085714Y-66699997D01*
X97752381Y-65033330D02*
X97752381Y-65604759D01*
X97752381Y-65319045D02*
X96752381Y-65319045D01*
X96895238Y-65414283D01*
X96990476Y-65509521D01*
X97038095Y-65604759D01*
X97657143Y-64604759D02*
X97704762Y-64557140D01*
X97752381Y-64604759D01*
X97704762Y-64652378D01*
X97657143Y-64604759D01*
X97752381Y-64604759D01*
X96752381Y-63938093D02*
X96752381Y-63842854D01*
X96800000Y-63747616D01*
X96847619Y-63699997D01*
X96942857Y-63652378D01*
X97133333Y-63604759D01*
X97371429Y-63604759D01*
X97561905Y-63652378D01*
X97657143Y-63699997D01*
X97704762Y-63747616D01*
X97752381Y-63842854D01*
X97752381Y-63938093D01*
X97704762Y-64033331D01*
X97657143Y-64080950D01*
X97561905Y-64128569D01*
X97371429Y-64176188D01*
X97133333Y-64176188D01*
X96942857Y-64128569D01*
X96847619Y-64080950D01*
X96800000Y-64033331D01*
X96752381Y-63938093D01*
X99452381Y-84938095D02*
X99452381Y-85509524D01*
X99452381Y-85223810D02*
X98452381Y-85223810D01*
X98595238Y-85319048D01*
X98690476Y-85414286D01*
X98738095Y-85509524D01*
X98452381Y-84319048D02*
X98452381Y-84223809D01*
X98500000Y-84128571D01*
X98547619Y-84080952D01*
X98642857Y-84033333D01*
X98833333Y-83985714D01*
X99071429Y-83985714D01*
X99261905Y-84033333D01*
X99357143Y-84080952D01*
X99404762Y-84128571D01*
X99452381Y-84223809D01*
X99452381Y-84319048D01*
X99404762Y-84414286D01*
X99357143Y-84461905D01*
X99261905Y-84509524D01*
X99071429Y-84557143D01*
X98833333Y-84557143D01*
X98642857Y-84509524D01*
X98547619Y-84461905D01*
X98500000Y-84414286D01*
X98452381Y-84319048D01*
X99071429Y-83557143D02*
X99071429Y-82795238D01*
X98547619Y-82366667D02*
X98500000Y-82319048D01*
X98452381Y-82223810D01*
X98452381Y-81985714D01*
X98500000Y-81890476D01*
X98547619Y-81842857D01*
X98642857Y-81795238D01*
X98738095Y-81795238D01*
X98880952Y-81842857D01*
X99452381Y-82414286D01*
X99452381Y-81795238D01*
X98452381Y-81176191D02*
X98452381Y-81080952D01*
X98500000Y-80985714D01*
X98547619Y-80938095D01*
X98642857Y-80890476D01*
X98833333Y-80842857D01*
X99071429Y-80842857D01*
X99261905Y-80890476D01*
X99357143Y-80938095D01*
X99404762Y-80985714D01*
X99452381Y-81080952D01*
X99452381Y-81176191D01*
X99404762Y-81271429D01*
X99357143Y-81319048D01*
X99261905Y-81366667D01*
X99071429Y-81414286D01*
X98833333Y-81414286D01*
X98642857Y-81366667D01*
X98547619Y-81319048D01*
X98500000Y-81271429D01*
X98452381Y-81176191D01*
X99452381Y-79890476D02*
X99452381Y-80461905D01*
X99452381Y-80176191D02*
X98452381Y-80176191D01*
X98595238Y-80271429D01*
X98690476Y-80366667D01*
X98738095Y-80461905D01*
X98452381Y-79557143D02*
X98452381Y-78890476D01*
X99452381Y-79319048D01*
X101152381Y-85461905D02*
X100152381Y-85461905D01*
X101152381Y-84890476D02*
X100580952Y-85319048D01*
X100152381Y-84890476D02*
X100723810Y-85461905D01*
X100485714Y-84033333D02*
X101152381Y-84033333D01*
X100485714Y-84461905D02*
X101009524Y-84461905D01*
X101104762Y-84414286D01*
X101152381Y-84319048D01*
X101152381Y-84176190D01*
X101104762Y-84080952D01*
X101057143Y-84033333D01*
X101152381Y-83557143D02*
X100485714Y-83557143D01*
X100676190Y-83557143D02*
X100580952Y-83509524D01*
X100533333Y-83461905D01*
X100485714Y-83366667D01*
X100485714Y-83271428D01*
X100485714Y-83080952D02*
X100485714Y-82700000D01*
X100152381Y-82938095D02*
X101009524Y-82938095D01*
X101104762Y-82890476D01*
X101152381Y-82795238D01*
X101152381Y-82700000D01*
X101104762Y-81652380D02*
X101152381Y-81509523D01*
X101152381Y-81271427D01*
X101104762Y-81176189D01*
X101057143Y-81128570D01*
X100961905Y-81080951D01*
X100866667Y-81080951D01*
X100771429Y-81128570D01*
X100723810Y-81176189D01*
X100676190Y-81271427D01*
X100628571Y-81461904D01*
X100580952Y-81557142D01*
X100533333Y-81604761D01*
X100438095Y-81652380D01*
X100342857Y-81652380D01*
X100247619Y-81604761D01*
X100200000Y-81557142D01*
X100152381Y-81461904D01*
X100152381Y-81223808D01*
X100200000Y-81080951D01*
X101152381Y-80652380D02*
X100152381Y-80652380D01*
X100771429Y-80557142D02*
X101152381Y-80271427D01*
X100485714Y-80271427D02*
X100866667Y-80652380D01*
X101152381Y-79414284D02*
X100628571Y-79414284D01*
X100533333Y-79461903D01*
X100485714Y-79557141D01*
X100485714Y-79747618D01*
X100533333Y-79842856D01*
X101104762Y-79414284D02*
X101152381Y-79509522D01*
X101152381Y-79747618D01*
X101104762Y-79842856D01*
X101009524Y-79890475D01*
X100914286Y-79890475D01*
X100819048Y-79842856D01*
X100771429Y-79747618D01*
X100771429Y-79509522D01*
X100723810Y-79414284D01*
X100485714Y-78509522D02*
X101152381Y-78509522D01*
X100485714Y-78938094D02*
X101009524Y-78938094D01*
X101104762Y-78890475D01*
X101152381Y-78795237D01*
X101152381Y-78652379D01*
X101104762Y-78557141D01*
X101057143Y-78509522D01*
X101104762Y-77652379D02*
X101152381Y-77747617D01*
X101152381Y-77938094D01*
X101104762Y-78033332D01*
X101009524Y-78080951D01*
X100628571Y-78080951D01*
X100533333Y-78033332D01*
X100485714Y-77938094D01*
X100485714Y-77747617D01*
X100533333Y-77652379D01*
X100628571Y-77604760D01*
X100723810Y-77604760D01*
X100819048Y-78080951D01*
X100485714Y-77176189D02*
X101152381Y-77176189D01*
X100580952Y-77176189D02*
X100533333Y-77128570D01*
X100485714Y-77033332D01*
X100485714Y-76890474D01*
X100533333Y-76795236D01*
X100628571Y-76747617D01*
X101152381Y-76747617D01*
D12*
X134897867Y-73586829D02*
X134897867Y-72936829D01*
X120647867Y-73586829D02*
X120647867Y-72826829D01*
X120647867Y-59336829D02*
X120647867Y-60096829D01*
X134897867Y-59336829D02*
X134897867Y-60096829D01*
X134897867Y-73586829D02*
X134137867Y-73586829D01*
X134897867Y-59336829D02*
X134137867Y-59336829D01*
X120647867Y-59336829D02*
X121407867Y-59336829D01*
X120647867Y-73586829D02*
X121407867Y-73586829D01*
X134897867Y-72936829D02*
X136422867Y-72936829D01*
D13*
X136600000Y-95550000D02*
X137050000Y-95550000D01*
X136600000Y-97400000D02*
X136600000Y-95550000D01*
X144400000Y-99950000D02*
X144400000Y-99700000D01*
X136600000Y-99950000D02*
X136600000Y-99700000D01*
X144400000Y-97400000D02*
X144400000Y-95550000D01*
X144400000Y-95550000D02*
X143950000Y-95550000D01*
X138800000Y-95000000D02*
X139250000Y-95000000D01*
X138800000Y-95000000D02*
X138800000Y-95450000D01*
D12*
X118000000Y-99999000D02*
X128500000Y-99999000D01*
X129199000Y-100700000D02*
X132700000Y-100700000D01*
X118000000Y-94953000D02*
X118000000Y-87651000D01*
X132700000Y-87651000D02*
X132700000Y-94953000D01*
X131226000Y-86200000D02*
X128209000Y-86200000D01*
X129199000Y-100700000D02*
X128500000Y-99999000D01*
X118000000Y-99999000D02*
X118000000Y-97652000D01*
X132700000Y-97721000D02*
X132700000Y-100700000D01*
D13*
X158470000Y-53090000D02*
X158470000Y-86610000D01*
X158470000Y-86610000D02*
X148870000Y-86610000D01*
X148870000Y-86610000D02*
X148870000Y-53090000D01*
X148870000Y-53090000D02*
X158470000Y-53090000D01*
D12*
X105410000Y-57150000D02*
X105410000Y-72390000D01*
X110490000Y-69850000D02*
X110490000Y-57150000D01*
X105410000Y-57150000D02*
X110490000Y-57150000D01*
X105410000Y-72390000D02*
X107950000Y-72390000D01*
X110770000Y-71120000D02*
X110770000Y-72670000D01*
X107950000Y-72390000D02*
X107950000Y-69850000D01*
X107950000Y-69850000D02*
X110490000Y-69850000D01*
X110770000Y-72670000D02*
X109220000Y-72670000D01*
D13*
X101350000Y-42190000D02*
X160270000Y-42190000D01*
X160270000Y-42190000D02*
X160270000Y-51790000D01*
X160270000Y-51790000D02*
X101350000Y-51790000D01*
X101350000Y-51790000D02*
X101350000Y-42190000D01*
D12*
X122950000Y-83600000D02*
X123650000Y-83600000D01*
X123650000Y-84800000D02*
X122950000Y-84800000D01*
X114100000Y-84325000D02*
X115100000Y-84325000D01*
X115100000Y-85675000D02*
X114100000Y-85675000D01*
X114000000Y-90625000D02*
X115000000Y-90625000D01*
X115000000Y-91975000D02*
X114000000Y-91975000D01*
X114000000Y-92225000D02*
X115000000Y-92225000D01*
X115000000Y-93575000D02*
X114000000Y-93575000D01*
X114000000Y-93825000D02*
X115000000Y-93825000D01*
X115000000Y-95175000D02*
X114000000Y-95175000D01*
X114000000Y-87425000D02*
X115000000Y-87425000D01*
X115000000Y-88775000D02*
X114000000Y-88775000D01*
X114000000Y-89025000D02*
X115000000Y-89025000D01*
X115000000Y-90375000D02*
X114000000Y-90375000D01*
X130100000Y-80575000D02*
X129100000Y-80575000D01*
X129100000Y-79225000D02*
X130100000Y-79225000D01*
X152750000Y-91675000D02*
X151750000Y-91675000D01*
X151750000Y-90325000D02*
X152750000Y-90325000D01*
D13*
X127912867Y-77821829D02*
X127912867Y-76621829D01*
X129672867Y-76621829D02*
X129672867Y-77821829D01*
D12*
X136880000Y-91440000D02*
X136880000Y-92990000D01*
X136880000Y-92990000D02*
X139980000Y-92990000D01*
X139980000Y-92990000D02*
X139980000Y-91440000D01*
X137160000Y-90170000D02*
X137160000Y-85090000D01*
X137160000Y-85090000D02*
X139700000Y-85090000D01*
X139700000Y-85090000D02*
X139700000Y-90170000D01*
X139700000Y-90170000D02*
X137160000Y-90170000D01*
X134340000Y-91440000D02*
X134340000Y-92990000D01*
X134340000Y-92990000D02*
X137440000Y-92990000D01*
X137440000Y-92990000D02*
X137440000Y-91440000D01*
X134620000Y-90170000D02*
X134620000Y-85090000D01*
X134620000Y-85090000D02*
X137160000Y-85090000D01*
X137160000Y-85090000D02*
X137160000Y-90170000D01*
X137160000Y-90170000D02*
X134620000Y-90170000D01*
X143230000Y-73660000D02*
X143230000Y-75210000D01*
X143230000Y-75210000D02*
X146330000Y-75210000D01*
X146330000Y-75210000D02*
X146330000Y-73660000D01*
X143510000Y-72390000D02*
X143510000Y-67310000D01*
X143510000Y-67310000D02*
X146050000Y-67310000D01*
X146050000Y-67310000D02*
X146050000Y-72390000D01*
X146050000Y-72390000D02*
X143510000Y-72390000D01*
X140690000Y-73660000D02*
X140690000Y-75210000D01*
X140690000Y-75210000D02*
X143790000Y-75210000D01*
X143790000Y-75210000D02*
X143790000Y-73660000D01*
X140970000Y-72390000D02*
X140970000Y-67310000D01*
X140970000Y-67310000D02*
X143510000Y-67310000D01*
X143510000Y-67310000D02*
X143510000Y-72390000D01*
X143510000Y-72390000D02*
X140970000Y-72390000D01*
X155750000Y-95600000D02*
X155750000Y-92900000D01*
X154250000Y-95600000D02*
X154250000Y-92900000D01*
X155150000Y-94100000D02*
X154900000Y-94100000D01*
X154900000Y-94100000D02*
X155050000Y-94250000D01*
X154650000Y-94350000D02*
X155350000Y-94350000D01*
X155000000Y-94000000D02*
X155000000Y-93650000D01*
X155000000Y-94350000D02*
X154650000Y-94000000D01*
X154650000Y-94000000D02*
X155350000Y-94000000D01*
X155350000Y-94000000D02*
X155000000Y-94350000D01*
X139200000Y-77050000D02*
X139200000Y-77750000D01*
X138000000Y-77750000D02*
X138000000Y-77050000D01*
X135250000Y-79300000D02*
X135950000Y-79300000D01*
X135950000Y-80500000D02*
X135250000Y-80500000D01*
X141542867Y-59921829D02*
X142242867Y-59921829D01*
X142242867Y-61121829D02*
X141542867Y-61121829D01*
X141542867Y-62521829D02*
X142242867Y-62521829D01*
X142242867Y-63721829D02*
X141542867Y-63721829D01*
X145250000Y-91900000D02*
X144550000Y-91900000D01*
X144550000Y-90700000D02*
X145250000Y-90700000D01*
X145250000Y-93400000D02*
X144550000Y-93400000D01*
X144550000Y-92200000D02*
X145250000Y-92200000D01*
X138392867Y-71771829D02*
X138392867Y-72471829D01*
X137192867Y-72471829D02*
X137192867Y-71771829D01*
X139892867Y-71771829D02*
X139892867Y-72471829D01*
X138692867Y-72471829D02*
X138692867Y-71771829D01*
X137200000Y-69550000D02*
X137200000Y-68850000D01*
X138400000Y-68850000D02*
X138400000Y-69550000D01*
X138700000Y-69550000D02*
X138700000Y-68850000D01*
X139900000Y-68850000D02*
X139900000Y-69550000D01*
X117092867Y-69071829D02*
X117092867Y-68371829D01*
X118292867Y-68371829D02*
X118292867Y-69071829D01*
X132942867Y-56921829D02*
X132242867Y-56921829D01*
X132242867Y-55721829D02*
X132942867Y-55721829D01*
X141224000Y-86614000D02*
X141224000Y-89662000D01*
X141224000Y-89662000D02*
X148336000Y-89662000D01*
X148336000Y-89662000D02*
X148336000Y-86614000D01*
X141224000Y-83566000D02*
X141224000Y-82804000D01*
X141224000Y-82804000D02*
X142748000Y-80518000D01*
X142748000Y-80518000D02*
X146812000Y-80518000D01*
X146812000Y-80518000D02*
X148336000Y-82804000D01*
X148336000Y-82804000D02*
X148336000Y-83566000D01*
D13*
X140067867Y-62496829D02*
X140067867Y-61146829D01*
X138317867Y-62496829D02*
X138317867Y-61146829D01*
D12*
X147250000Y-91210000D02*
X147250000Y-92760000D01*
X147530000Y-96570000D02*
X147530000Y-94030000D01*
X147530000Y-94030000D02*
X150070000Y-94030000D01*
X150350000Y-92760000D02*
X150350000Y-91210000D01*
X150350000Y-91210000D02*
X147250000Y-91210000D01*
X150070000Y-94030000D02*
X150070000Y-96570000D01*
X150070000Y-96570000D02*
X147530000Y-96570000D01*
X133941421Y-79000000D02*
G75*
G03X133941421Y-79000000I-141421J0D01*
G01*
X134100000Y-76100000D02*
X137300000Y-76100000D01*
X137300000Y-76100000D02*
X137300000Y-78700000D01*
X137300000Y-78700000D02*
X134100000Y-78700000D01*
X134100000Y-78700000D02*
X134100000Y-76100000D01*
D13*
X104765000Y-90145000D02*
X104765000Y-77495000D01*
X109865000Y-77495000D02*
X104765000Y-77495000D01*
X109865000Y-90145000D02*
X104765000Y-90145000D01*
X109865000Y-85090000D02*
X109865000Y-90145000D01*
X109865000Y-82550000D02*
X109865000Y-77495000D01*
D12*
X119338095Y-73952381D02*
X119338095Y-74761905D01*
X119385714Y-74857143D01*
X119433333Y-74904762D01*
X119528571Y-74952381D01*
X119719048Y-74952381D01*
X119814286Y-74904762D01*
X119861905Y-74857143D01*
X119909524Y-74761905D01*
X119909524Y-73952381D01*
X120338095Y-74047619D02*
X120385714Y-74000000D01*
X120480952Y-73952381D01*
X120719048Y-73952381D01*
X120814286Y-74000000D01*
X120861905Y-74047619D01*
X120909524Y-74142857D01*
X120909524Y-74238095D01*
X120861905Y-74380952D01*
X120290476Y-74952381D01*
X120909524Y-74952381D01*
X140166667Y-93652381D02*
X140166667Y-94366667D01*
X140119047Y-94509524D01*
X140023809Y-94604762D01*
X139880952Y-94652381D01*
X139785714Y-94652381D01*
X141119048Y-93652381D02*
X140642857Y-93652381D01*
X140595238Y-94128571D01*
X140642857Y-94080952D01*
X140738095Y-94033333D01*
X140976191Y-94033333D01*
X141071429Y-94080952D01*
X141119048Y-94128571D01*
X141166667Y-94223810D01*
X141166667Y-94461905D01*
X141119048Y-94557143D01*
X141071429Y-94604762D01*
X140976191Y-94652381D01*
X140738095Y-94652381D01*
X140642857Y-94604762D01*
X140595238Y-94557143D01*
X129261905Y-85452381D02*
X129261905Y-84452381D01*
X129642858Y-84452381D01*
X129738096Y-84500000D01*
X129785715Y-84547619D01*
X129833334Y-84642857D01*
X129833334Y-84785714D01*
X129785715Y-84880952D01*
X129738096Y-84928571D01*
X129642858Y-84976190D01*
X129261905Y-84976190D01*
X130785715Y-85452381D02*
X130214286Y-85452381D01*
X130500000Y-85452381D02*
X130500000Y-84452381D01*
X130404762Y-84595238D01*
X130309524Y-84690476D01*
X130214286Y-84738095D01*
X111961905Y-99152381D02*
X111961905Y-98152381D01*
X112295239Y-98866667D01*
X112628572Y-98152381D01*
X112628572Y-99152381D01*
X113104762Y-99152381D02*
X113104762Y-98485714D01*
X113104762Y-98152381D02*
X113057143Y-98200000D01*
X113104762Y-98247619D01*
X113152381Y-98200000D01*
X113104762Y-98152381D01*
X113104762Y-98247619D01*
X114009524Y-99104762D02*
X113914286Y-99152381D01*
X113723809Y-99152381D01*
X113628571Y-99104762D01*
X113580952Y-99057143D01*
X113533333Y-98961905D01*
X113533333Y-98676190D01*
X113580952Y-98580952D01*
X113628571Y-98533333D01*
X113723809Y-98485714D01*
X113914286Y-98485714D01*
X114009524Y-98533333D01*
X114438095Y-99152381D02*
X114438095Y-98485714D01*
X114438095Y-98676190D02*
X114485714Y-98580952D01*
X114533333Y-98533333D01*
X114628571Y-98485714D01*
X114723810Y-98485714D01*
X115200000Y-99152381D02*
X115104762Y-99104762D01*
X115057143Y-99057143D01*
X115009524Y-98961905D01*
X115009524Y-98676190D01*
X115057143Y-98580952D01*
X115104762Y-98533333D01*
X115200000Y-98485714D01*
X115342858Y-98485714D01*
X115438096Y-98533333D01*
X115485715Y-98580952D01*
X115533334Y-98676190D01*
X115533334Y-98961905D01*
X115485715Y-99057143D01*
X115438096Y-99104762D01*
X115342858Y-99152381D01*
X115200000Y-99152381D01*
X115914286Y-99104762D02*
X116057143Y-99152381D01*
X116295239Y-99152381D01*
X116390477Y-99104762D01*
X116438096Y-99057143D01*
X116485715Y-98961905D01*
X116485715Y-98866667D01*
X116438096Y-98771429D01*
X116390477Y-98723810D01*
X116295239Y-98676190D01*
X116104762Y-98628571D01*
X116009524Y-98580952D01*
X115961905Y-98533333D01*
X115914286Y-98438095D01*
X115914286Y-98342857D01*
X115961905Y-98247619D01*
X116009524Y-98200000D01*
X116104762Y-98152381D01*
X116342858Y-98152381D01*
X116485715Y-98200000D01*
X116914286Y-99152381D02*
X116914286Y-98152381D01*
X117152381Y-98152381D01*
X117295239Y-98200000D01*
X117390477Y-98295238D01*
X117438096Y-98390476D01*
X117485715Y-98580952D01*
X117485715Y-98723810D01*
X117438096Y-98914286D01*
X117390477Y-99009524D01*
X117295239Y-99104762D01*
X117152381Y-99152381D01*
X116914286Y-99152381D01*
X152614381Y-87963333D02*
X153328667Y-87963333D01*
X153471524Y-88010953D01*
X153566762Y-88106191D01*
X153614381Y-88249048D01*
X153614381Y-88344286D01*
X152947714Y-87058571D02*
X153614381Y-87058571D01*
X152566762Y-87296667D02*
X153281048Y-87534762D01*
X153281048Y-86915714D01*
D13*
X151132381Y-58154285D02*
X151132381Y-58725714D01*
X151132381Y-58440000D02*
X150132381Y-58440000D01*
X150275238Y-58535238D01*
X150370476Y-58630476D01*
X150418095Y-58725714D01*
D12*
X107402381Y-73993333D02*
X108116667Y-73993333D01*
X108259524Y-74040953D01*
X108354762Y-74136191D01*
X108402381Y-74279048D01*
X108402381Y-74374286D01*
X107402381Y-73612381D02*
X107402381Y-72993333D01*
X107783333Y-73326667D01*
X107783333Y-73183809D01*
X107830952Y-73088571D01*
X107878571Y-73040952D01*
X107973810Y-72993333D01*
X108211905Y-72993333D01*
X108307143Y-73040952D01*
X108354762Y-73088571D01*
X108402381Y-73183809D01*
X108402381Y-73469524D01*
X108354762Y-73564762D01*
X108307143Y-73612381D01*
X99844267Y-46188381D02*
X99844267Y-46902667D01*
X99796647Y-47045524D01*
X99701409Y-47140762D01*
X99558552Y-47188381D01*
X99463314Y-47188381D01*
X100844267Y-47188381D02*
X100272838Y-47188381D01*
X100558552Y-47188381D02*
X100558552Y-46188381D01*
X100463314Y-46331238D01*
X100368076Y-46426476D01*
X100272838Y-46474095D01*
D13*
X106985715Y-50432381D02*
X106414286Y-50432381D01*
X106700000Y-50432381D02*
X106700000Y-49432381D01*
X106604762Y-49575238D01*
X106509524Y-49670476D01*
X106414286Y-49718095D01*
D12*
X122657143Y-82907143D02*
X122609524Y-82954762D01*
X122466667Y-83002381D01*
X122371429Y-83002381D01*
X122228571Y-82954762D01*
X122133333Y-82859524D01*
X122085714Y-82764286D01*
X122038095Y-82573810D01*
X122038095Y-82430952D01*
X122085714Y-82240476D01*
X122133333Y-82145238D01*
X122228571Y-82050000D01*
X122371429Y-82002381D01*
X122466667Y-82002381D01*
X122609524Y-82050000D01*
X122657143Y-82097619D01*
X123038095Y-82097619D02*
X123085714Y-82050000D01*
X123180952Y-82002381D01*
X123419048Y-82002381D01*
X123514286Y-82050000D01*
X123561905Y-82097619D01*
X123609524Y-82192857D01*
X123609524Y-82288095D01*
X123561905Y-82430952D01*
X122990476Y-83002381D01*
X123609524Y-83002381D01*
X124466667Y-82335714D02*
X124466667Y-83002381D01*
X124228571Y-81954762D02*
X123990476Y-82669048D01*
X124609524Y-82669048D01*
X111933334Y-85452381D02*
X111600000Y-84976190D01*
X111361905Y-85452381D02*
X111361905Y-84452381D01*
X111742858Y-84452381D01*
X111838096Y-84500000D01*
X111885715Y-84547619D01*
X111933334Y-84642857D01*
X111933334Y-84785714D01*
X111885715Y-84880952D01*
X111838096Y-84928571D01*
X111742858Y-84976190D01*
X111361905Y-84976190D01*
X112504762Y-84880952D02*
X112409524Y-84833333D01*
X112361905Y-84785714D01*
X112314286Y-84690476D01*
X112314286Y-84642857D01*
X112361905Y-84547619D01*
X112409524Y-84500000D01*
X112504762Y-84452381D01*
X112695239Y-84452381D01*
X112790477Y-84500000D01*
X112838096Y-84547619D01*
X112885715Y-84642857D01*
X112885715Y-84690476D01*
X112838096Y-84785714D01*
X112790477Y-84833333D01*
X112695239Y-84880952D01*
X112504762Y-84880952D01*
X112409524Y-84928571D01*
X112361905Y-84976190D01*
X112314286Y-85071429D01*
X112314286Y-85261905D01*
X112361905Y-85357143D01*
X112409524Y-85404762D01*
X112504762Y-85452381D01*
X112695239Y-85452381D01*
X112790477Y-85404762D01*
X112838096Y-85357143D01*
X112885715Y-85261905D01*
X112885715Y-85071429D01*
X112838096Y-84976190D01*
X112790477Y-84928571D01*
X112695239Y-84880952D01*
X112033334Y-91752381D02*
X111700000Y-91276190D01*
X111461905Y-91752381D02*
X111461905Y-90752381D01*
X111842858Y-90752381D01*
X111938096Y-90800000D01*
X111985715Y-90847619D01*
X112033334Y-90942857D01*
X112033334Y-91085714D01*
X111985715Y-91180952D01*
X111938096Y-91228571D01*
X111842858Y-91276190D01*
X111461905Y-91276190D01*
X112366667Y-90752381D02*
X113033334Y-90752381D01*
X112604762Y-91752381D01*
X112033334Y-93352381D02*
X111700000Y-92876190D01*
X111461905Y-93352381D02*
X111461905Y-92352381D01*
X111842858Y-92352381D01*
X111938096Y-92400000D01*
X111985715Y-92447619D01*
X112033334Y-92542857D01*
X112033334Y-92685714D01*
X111985715Y-92780952D01*
X111938096Y-92828571D01*
X111842858Y-92876190D01*
X111461905Y-92876190D01*
X112890477Y-92352381D02*
X112700000Y-92352381D01*
X112604762Y-92400000D01*
X112557143Y-92447619D01*
X112461905Y-92590476D01*
X112414286Y-92780952D01*
X112414286Y-93161905D01*
X112461905Y-93257143D01*
X112509524Y-93304762D01*
X112604762Y-93352381D01*
X112795239Y-93352381D01*
X112890477Y-93304762D01*
X112938096Y-93257143D01*
X112985715Y-93161905D01*
X112985715Y-92923810D01*
X112938096Y-92828571D01*
X112890477Y-92780952D01*
X112795239Y-92733333D01*
X112604762Y-92733333D01*
X112509524Y-92780952D01*
X112461905Y-92828571D01*
X112414286Y-92923810D01*
X112033334Y-95052381D02*
X111700000Y-94576190D01*
X111461905Y-95052381D02*
X111461905Y-94052381D01*
X111842858Y-94052381D01*
X111938096Y-94100000D01*
X111985715Y-94147619D01*
X112033334Y-94242857D01*
X112033334Y-94385714D01*
X111985715Y-94480952D01*
X111938096Y-94528571D01*
X111842858Y-94576190D01*
X111461905Y-94576190D01*
X112938096Y-94052381D02*
X112461905Y-94052381D01*
X112414286Y-94528571D01*
X112461905Y-94480952D01*
X112557143Y-94433333D01*
X112795239Y-94433333D01*
X112890477Y-94480952D01*
X112938096Y-94528571D01*
X112985715Y-94623810D01*
X112985715Y-94861905D01*
X112938096Y-94957143D01*
X112890477Y-95004762D01*
X112795239Y-95052381D01*
X112557143Y-95052381D01*
X112461905Y-95004762D01*
X112414286Y-94957143D01*
X111933334Y-88552381D02*
X111600000Y-88076190D01*
X111361905Y-88552381D02*
X111361905Y-87552381D01*
X111742858Y-87552381D01*
X111838096Y-87600000D01*
X111885715Y-87647619D01*
X111933334Y-87742857D01*
X111933334Y-87885714D01*
X111885715Y-87980952D01*
X111838096Y-88028571D01*
X111742858Y-88076190D01*
X111361905Y-88076190D01*
X112790477Y-87885714D02*
X112790477Y-88552381D01*
X112552381Y-87504762D02*
X112314286Y-88219048D01*
X112933334Y-88219048D01*
X111933334Y-90052381D02*
X111600000Y-89576190D01*
X111361905Y-90052381D02*
X111361905Y-89052381D01*
X111742858Y-89052381D01*
X111838096Y-89100000D01*
X111885715Y-89147619D01*
X111933334Y-89242857D01*
X111933334Y-89385714D01*
X111885715Y-89480952D01*
X111838096Y-89528571D01*
X111742858Y-89576190D01*
X111361905Y-89576190D01*
X112266667Y-89052381D02*
X112885715Y-89052381D01*
X112552381Y-89433333D01*
X112695239Y-89433333D01*
X112790477Y-89480952D01*
X112838096Y-89528571D01*
X112885715Y-89623810D01*
X112885715Y-89861905D01*
X112838096Y-89957143D01*
X112790477Y-90004762D01*
X112695239Y-90052381D01*
X112409524Y-90052381D01*
X112314286Y-90004762D01*
X112266667Y-89957143D01*
X127233334Y-80352381D02*
X126900000Y-79876190D01*
X126661905Y-80352381D02*
X126661905Y-79352381D01*
X127042858Y-79352381D01*
X127138096Y-79400000D01*
X127185715Y-79447619D01*
X127233334Y-79542857D01*
X127233334Y-79685714D01*
X127185715Y-79780952D01*
X127138096Y-79828571D01*
X127042858Y-79876190D01*
X126661905Y-79876190D01*
X127614286Y-79447619D02*
X127661905Y-79400000D01*
X127757143Y-79352381D01*
X127995239Y-79352381D01*
X128090477Y-79400000D01*
X128138096Y-79447619D01*
X128185715Y-79542857D01*
X128185715Y-79638095D01*
X128138096Y-79780952D01*
X127566667Y-80352381D01*
X128185715Y-80352381D01*
X152033334Y-89952381D02*
X151700000Y-89476190D01*
X151461905Y-89952381D02*
X151461905Y-88952381D01*
X151842858Y-88952381D01*
X151938096Y-89000000D01*
X151985715Y-89047619D01*
X152033334Y-89142857D01*
X152033334Y-89285714D01*
X151985715Y-89380952D01*
X151938096Y-89428571D01*
X151842858Y-89476190D01*
X151461905Y-89476190D01*
X152985715Y-89952381D02*
X152414286Y-89952381D01*
X152700000Y-89952381D02*
X152700000Y-88952381D01*
X152604762Y-89095238D01*
X152509524Y-89190476D01*
X152414286Y-89238095D01*
X127652381Y-77366666D02*
X127652381Y-77842857D01*
X126652381Y-77842857D01*
X127652381Y-76509523D02*
X127652381Y-77080952D01*
X127652381Y-76795238D02*
X126652381Y-76795238D01*
X126795238Y-76890476D01*
X126890476Y-76985714D01*
X126938095Y-77080952D01*
X135342381Y-92273333D02*
X136056667Y-92273333D01*
X136199524Y-92320953D01*
X136294762Y-92416191D01*
X136342381Y-92559048D01*
X136342381Y-92654286D01*
X136342381Y-91797143D02*
X135342381Y-91797143D01*
X135342381Y-91416190D01*
X135390000Y-91320952D01*
X135437619Y-91273333D01*
X135532857Y-91225714D01*
X135675714Y-91225714D01*
X135770952Y-91273333D01*
X135818571Y-91320952D01*
X135866190Y-91416190D01*
X135866190Y-91797143D01*
X135675714Y-90368571D02*
X136342381Y-90368571D01*
X135294762Y-90606667D02*
X136009048Y-90844762D01*
X136009048Y-90225714D01*
X157252381Y-94738095D02*
X156252381Y-94738095D01*
X156252381Y-94500000D01*
X156300000Y-94357142D01*
X156395238Y-94261904D01*
X156490476Y-94214285D01*
X156680952Y-94166666D01*
X156823810Y-94166666D01*
X157014286Y-94214285D01*
X157109524Y-94261904D01*
X157204762Y-94357142D01*
X157252381Y-94500000D01*
X157252381Y-94738095D01*
X157252381Y-93214285D02*
X157252381Y-93785714D01*
X157252381Y-93500000D02*
X156252381Y-93500000D01*
X156395238Y-93595238D01*
X156490476Y-93690476D01*
X156538095Y-93785714D01*
X139422143Y-81287857D02*
X139469762Y-81335476D01*
X139517381Y-81478333D01*
X139517381Y-81573571D01*
X139469762Y-81716429D01*
X139374524Y-81811667D01*
X139279286Y-81859286D01*
X139088810Y-81906905D01*
X138945952Y-81906905D01*
X138755476Y-81859286D01*
X138660238Y-81811667D01*
X138565000Y-81716429D01*
X138517381Y-81573571D01*
X138517381Y-81478333D01*
X138565000Y-81335476D01*
X138612619Y-81287857D01*
X138612619Y-80906905D02*
X138565000Y-80859286D01*
X138517381Y-80764048D01*
X138517381Y-80525952D01*
X138565000Y-80430714D01*
X138612619Y-80383095D01*
X138707857Y-80335476D01*
X138803095Y-80335476D01*
X138945952Y-80383095D01*
X139517381Y-80954524D01*
X139517381Y-80335476D01*
X138517381Y-80002143D02*
X138517381Y-79383095D01*
X138898333Y-79716429D01*
X138898333Y-79573571D01*
X138945952Y-79478333D01*
X138993571Y-79430714D01*
X139088810Y-79383095D01*
X139326905Y-79383095D01*
X139422143Y-79430714D01*
X139469762Y-79478333D01*
X139517381Y-79573571D01*
X139517381Y-79859286D01*
X139469762Y-79954524D01*
X139422143Y-80002143D01*
X132057143Y-80257143D02*
X132009524Y-80304762D01*
X131866667Y-80352381D01*
X131771429Y-80352381D01*
X131628571Y-80304762D01*
X131533333Y-80209524D01*
X131485714Y-80114286D01*
X131438095Y-79923810D01*
X131438095Y-79780952D01*
X131485714Y-79590476D01*
X131533333Y-79495238D01*
X131628571Y-79400000D01*
X131771429Y-79352381D01*
X131866667Y-79352381D01*
X132009524Y-79400000D01*
X132057143Y-79447619D01*
X132438095Y-79447619D02*
X132485714Y-79400000D01*
X132580952Y-79352381D01*
X132819048Y-79352381D01*
X132914286Y-79400000D01*
X132961905Y-79447619D01*
X133009524Y-79542857D01*
X133009524Y-79638095D01*
X132961905Y-79780952D01*
X132390476Y-80352381D01*
X133009524Y-80352381D01*
X133390476Y-79447619D02*
X133438095Y-79400000D01*
X133533333Y-79352381D01*
X133771429Y-79352381D01*
X133866667Y-79400000D01*
X133914286Y-79447619D01*
X133961905Y-79542857D01*
X133961905Y-79638095D01*
X133914286Y-79780952D01*
X133342857Y-80352381D01*
X133961905Y-80352381D01*
X141257143Y-59457143D02*
X141209524Y-59504762D01*
X141066667Y-59552381D01*
X140971429Y-59552381D01*
X140828571Y-59504762D01*
X140733333Y-59409524D01*
X140685714Y-59314286D01*
X140638095Y-59123810D01*
X140638095Y-58980952D01*
X140685714Y-58790476D01*
X140733333Y-58695238D01*
X140828571Y-58600000D01*
X140971429Y-58552381D01*
X141066667Y-58552381D01*
X141209524Y-58600000D01*
X141257143Y-58647619D01*
X141638095Y-58647619D02*
X141685714Y-58600000D01*
X141780952Y-58552381D01*
X142019048Y-58552381D01*
X142114286Y-58600000D01*
X142161905Y-58647619D01*
X142209524Y-58742857D01*
X142209524Y-58838095D01*
X142161905Y-58980952D01*
X141590476Y-59552381D01*
X142209524Y-59552381D01*
X143161905Y-59552381D02*
X142590476Y-59552381D01*
X142876190Y-59552381D02*
X142876190Y-58552381D01*
X142780952Y-58695238D01*
X142685714Y-58790476D01*
X142590476Y-58838095D01*
X141250010Y-64957143D02*
X141202391Y-65004762D01*
X141059534Y-65052381D01*
X140964296Y-65052381D01*
X140821438Y-65004762D01*
X140726200Y-64909524D01*
X140678581Y-64814286D01*
X140630962Y-64623810D01*
X140630962Y-64480952D01*
X140678581Y-64290476D01*
X140726200Y-64195238D01*
X140821438Y-64100000D01*
X140964296Y-64052381D01*
X141059534Y-64052381D01*
X141202391Y-64100000D01*
X141250010Y-64147619D01*
X141630962Y-64147619D02*
X141678581Y-64100000D01*
X141773819Y-64052381D01*
X142011915Y-64052381D01*
X142107153Y-64100000D01*
X142154772Y-64147619D01*
X142202391Y-64242857D01*
X142202391Y-64338095D01*
X142154772Y-64480952D01*
X141583343Y-65052381D01*
X142202391Y-65052381D01*
X142821438Y-64052381D02*
X142916677Y-64052381D01*
X143011915Y-64100000D01*
X143059534Y-64147619D01*
X143107153Y-64242857D01*
X143154772Y-64433333D01*
X143154772Y-64671429D01*
X143107153Y-64861905D01*
X143059534Y-64957143D01*
X143011915Y-65004762D01*
X142916677Y-65052381D01*
X142821438Y-65052381D01*
X142726200Y-65004762D01*
X142678581Y-64957143D01*
X142630962Y-64861905D01*
X142583343Y-64671429D01*
X142583343Y-64433333D01*
X142630962Y-64242857D01*
X142678581Y-64147619D01*
X142726200Y-64100000D01*
X142821438Y-64052381D01*
X141216143Y-91670143D02*
X141168524Y-91717762D01*
X141025667Y-91765381D01*
X140930429Y-91765381D01*
X140787571Y-91717762D01*
X140692333Y-91622524D01*
X140644714Y-91527286D01*
X140597095Y-91336810D01*
X140597095Y-91193952D01*
X140644714Y-91003476D01*
X140692333Y-90908238D01*
X140787571Y-90813000D01*
X140930429Y-90765381D01*
X141025667Y-90765381D01*
X141168524Y-90813000D01*
X141216143Y-90860619D01*
X142168524Y-91765381D02*
X141597095Y-91765381D01*
X141882809Y-91765381D02*
X141882809Y-90765381D01*
X141787571Y-90908238D01*
X141692333Y-91003476D01*
X141597095Y-91051095D01*
X142549476Y-90860619D02*
X142597095Y-90813000D01*
X142692333Y-90765381D01*
X142930429Y-90765381D01*
X143025667Y-90813000D01*
X143073286Y-90860619D01*
X143120905Y-90955857D01*
X143120905Y-91051095D01*
X143073286Y-91193952D01*
X142501857Y-91765381D01*
X143120905Y-91765381D01*
X141216143Y-93194143D02*
X141168524Y-93241762D01*
X141025667Y-93289381D01*
X140930429Y-93289381D01*
X140787571Y-93241762D01*
X140692333Y-93146524D01*
X140644714Y-93051286D01*
X140597095Y-92860810D01*
X140597095Y-92717952D01*
X140644714Y-92527476D01*
X140692333Y-92432238D01*
X140787571Y-92337000D01*
X140930429Y-92289381D01*
X141025667Y-92289381D01*
X141168524Y-92337000D01*
X141216143Y-92384619D01*
X142168524Y-93289381D02*
X141597095Y-93289381D01*
X141882809Y-93289381D02*
X141882809Y-92289381D01*
X141787571Y-92432238D01*
X141692333Y-92527476D01*
X141597095Y-92575095D01*
X143120905Y-93289381D02*
X142549476Y-93289381D01*
X142835190Y-93289381D02*
X142835190Y-92289381D01*
X142739952Y-92432238D01*
X142644714Y-92527476D01*
X142549476Y-92575095D01*
X135882143Y-74652143D02*
X135834524Y-74699762D01*
X135691667Y-74747381D01*
X135596429Y-74747381D01*
X135453571Y-74699762D01*
X135358333Y-74604524D01*
X135310714Y-74509286D01*
X135263095Y-74318810D01*
X135263095Y-74175952D01*
X135310714Y-73985476D01*
X135358333Y-73890238D01*
X135453571Y-73795000D01*
X135596429Y-73747381D01*
X135691667Y-73747381D01*
X135834524Y-73795000D01*
X135882143Y-73842619D01*
X136834524Y-74747381D02*
X136263095Y-74747381D01*
X136548809Y-74747381D02*
X136548809Y-73747381D01*
X136453571Y-73890238D01*
X136358333Y-73985476D01*
X136263095Y-74033095D01*
X137453571Y-73747381D02*
X137548810Y-73747381D01*
X137644048Y-73795000D01*
X137691667Y-73842619D01*
X137739286Y-73937857D01*
X137786905Y-74128333D01*
X137786905Y-74366429D01*
X137739286Y-74556905D01*
X137691667Y-74652143D01*
X137644048Y-74699762D01*
X137548810Y-74747381D01*
X137453571Y-74747381D01*
X137358333Y-74699762D01*
X137310714Y-74652143D01*
X137263095Y-74556905D01*
X137215476Y-74366429D01*
X137215476Y-74128333D01*
X137263095Y-73937857D01*
X137310714Y-73842619D01*
X137358333Y-73795000D01*
X137453571Y-73747381D01*
X139533334Y-74557143D02*
X139485715Y-74604762D01*
X139342858Y-74652381D01*
X139247620Y-74652381D01*
X139104762Y-74604762D01*
X139009524Y-74509524D01*
X138961905Y-74414286D01*
X138914286Y-74223810D01*
X138914286Y-74080952D01*
X138961905Y-73890476D01*
X139009524Y-73795238D01*
X139104762Y-73700000D01*
X139247620Y-73652381D01*
X139342858Y-73652381D01*
X139485715Y-73700000D01*
X139533334Y-73747619D01*
X140009524Y-74652381D02*
X140200000Y-74652381D01*
X140295239Y-74604762D01*
X140342858Y-74557143D01*
X140438096Y-74414286D01*
X140485715Y-74223810D01*
X140485715Y-73842857D01*
X140438096Y-73747619D01*
X140390477Y-73700000D01*
X140295239Y-73652381D01*
X140104762Y-73652381D01*
X140009524Y-73700000D01*
X139961905Y-73747619D01*
X139914286Y-73842857D01*
X139914286Y-74080952D01*
X139961905Y-74176190D01*
X140009524Y-74223810D01*
X140104762Y-74271429D01*
X140295239Y-74271429D01*
X140390477Y-74223810D01*
X140438096Y-74176190D01*
X140485715Y-74080952D01*
X138164276Y-66714666D02*
X138211895Y-66762285D01*
X138259514Y-66905142D01*
X138259514Y-67000380D01*
X138211895Y-67143238D01*
X138116657Y-67238476D01*
X138021419Y-67286095D01*
X137830943Y-67333714D01*
X137688085Y-67333714D01*
X137497609Y-67286095D01*
X137402371Y-67238476D01*
X137307133Y-67143238D01*
X137259514Y-67000380D01*
X137259514Y-66905142D01*
X137307133Y-66762285D01*
X137354752Y-66714666D01*
X137688085Y-66143238D02*
X137640466Y-66238476D01*
X137592847Y-66286095D01*
X137497609Y-66333714D01*
X137449990Y-66333714D01*
X137354752Y-66286095D01*
X137307133Y-66238476D01*
X137259514Y-66143238D01*
X137259514Y-65952761D01*
X137307133Y-65857523D01*
X137354752Y-65809904D01*
X137449990Y-65762285D01*
X137497609Y-65762285D01*
X137592847Y-65809904D01*
X137640466Y-65857523D01*
X137688085Y-65952761D01*
X137688085Y-66143238D01*
X137735704Y-66238476D01*
X137783323Y-66286095D01*
X137878562Y-66333714D01*
X138069038Y-66333714D01*
X138164276Y-66286095D01*
X138211895Y-66238476D01*
X138259514Y-66143238D01*
X138259514Y-65952761D01*
X138211895Y-65857523D01*
X138164276Y-65809904D01*
X138069038Y-65762285D01*
X137878562Y-65762285D01*
X137783323Y-65809904D01*
X137735704Y-65857523D01*
X137688085Y-65952761D01*
X139676143Y-66714666D02*
X139723762Y-66762285D01*
X139771381Y-66905142D01*
X139771381Y-67000380D01*
X139723762Y-67143238D01*
X139628524Y-67238476D01*
X139533286Y-67286095D01*
X139342810Y-67333714D01*
X139199952Y-67333714D01*
X139009476Y-67286095D01*
X138914238Y-67238476D01*
X138819000Y-67143238D01*
X138771381Y-67000380D01*
X138771381Y-66905142D01*
X138819000Y-66762285D01*
X138866619Y-66714666D01*
X138771381Y-66381333D02*
X138771381Y-65714666D01*
X139771381Y-66143238D01*
X116657143Y-68866666D02*
X116704762Y-68914285D01*
X116752381Y-69057142D01*
X116752381Y-69152380D01*
X116704762Y-69295238D01*
X116609524Y-69390476D01*
X116514286Y-69438095D01*
X116323810Y-69485714D01*
X116180952Y-69485714D01*
X115990476Y-69438095D01*
X115895238Y-69390476D01*
X115800000Y-69295238D01*
X115752381Y-69152380D01*
X115752381Y-69057142D01*
X115800000Y-68914285D01*
X115847619Y-68866666D01*
X115752381Y-67961904D02*
X115752381Y-68438095D01*
X116228571Y-68485714D01*
X116180952Y-68438095D01*
X116133333Y-68342857D01*
X116133333Y-68104761D01*
X116180952Y-68009523D01*
X116228571Y-67961904D01*
X116323810Y-67914285D01*
X116561905Y-67914285D01*
X116657143Y-67961904D01*
X116704762Y-68009523D01*
X116752381Y-68104761D01*
X116752381Y-68342857D01*
X116704762Y-68438095D01*
X116657143Y-68485714D01*
X134833334Y-56757143D02*
X134785715Y-56804762D01*
X134642858Y-56852381D01*
X134547620Y-56852381D01*
X134404762Y-56804762D01*
X134309524Y-56709524D01*
X134261905Y-56614286D01*
X134214286Y-56423810D01*
X134214286Y-56280952D01*
X134261905Y-56090476D01*
X134309524Y-55995238D01*
X134404762Y-55900000D01*
X134547620Y-55852381D01*
X134642858Y-55852381D01*
X134785715Y-55900000D01*
X134833334Y-55947619D01*
X135690477Y-56185714D02*
X135690477Y-56852381D01*
X135452381Y-55804762D02*
X135214286Y-56519048D01*
X135833334Y-56519048D01*
X139638095Y-82752381D02*
X139638095Y-83561905D01*
X139685714Y-83657143D01*
X139733333Y-83704762D01*
X139828571Y-83752381D01*
X140019048Y-83752381D01*
X140114286Y-83704762D01*
X140161905Y-83657143D01*
X140209524Y-83561905D01*
X140209524Y-82752381D01*
X141209524Y-83752381D02*
X140638095Y-83752381D01*
X140923809Y-83752381D02*
X140923809Y-82752381D01*
X140828571Y-82895238D01*
X140733333Y-82990476D01*
X140638095Y-83038095D01*
X138723809Y-59076190D02*
X138723809Y-59552381D01*
X138390476Y-58552381D02*
X138723809Y-59076190D01*
X139057143Y-58552381D01*
X139914286Y-59552381D02*
X139342857Y-59552381D01*
X139628571Y-59552381D02*
X139628571Y-58552381D01*
X139533333Y-58695238D01*
X139438095Y-58790476D01*
X139342857Y-58838095D01*
X148952381Y-90433333D02*
X149666667Y-90433333D01*
X149809524Y-90480953D01*
X149904762Y-90576191D01*
X149952381Y-90719048D01*
X149952381Y-90814286D01*
X149952381Y-89957143D02*
X148952381Y-89957143D01*
X148952381Y-89576190D01*
X149000000Y-89480952D01*
X149047619Y-89433333D01*
X149142857Y-89385714D01*
X149285714Y-89385714D01*
X149380952Y-89433333D01*
X149428571Y-89480952D01*
X149476190Y-89576190D01*
X149476190Y-89957143D01*
X148952381Y-88480952D02*
X148952381Y-88957143D01*
X149428571Y-89004762D01*
X149380952Y-88957143D01*
X149333333Y-88861905D01*
X149333333Y-88623809D01*
X149380952Y-88528571D01*
X149428571Y-88480952D01*
X149523810Y-88433333D01*
X149761905Y-88433333D01*
X149857143Y-88480952D01*
X149904762Y-88528571D01*
X149952381Y-88623809D01*
X149952381Y-88861905D01*
X149904762Y-88957143D01*
X149857143Y-89004762D01*
X132323809Y-77576190D02*
X132323809Y-78052381D01*
X131990476Y-77052381D02*
X132323809Y-77576190D01*
X132657143Y-77052381D01*
X132942857Y-77147619D02*
X132990476Y-77100000D01*
X133085714Y-77052381D01*
X133323810Y-77052381D01*
X133419048Y-77100000D01*
X133466667Y-77147619D01*
X133514286Y-77242857D01*
X133514286Y-77338095D01*
X133466667Y-77480952D01*
X132895238Y-78052381D01*
X133514286Y-78052381D01*
X107452381Y-91733333D02*
X108166667Y-91733333D01*
X108309524Y-91780953D01*
X108404762Y-91876191D01*
X108452381Y-92019048D01*
X108452381Y-92114286D01*
X107547619Y-91304762D02*
X107500000Y-91257143D01*
X107452381Y-91161905D01*
X107452381Y-90923809D01*
X107500000Y-90828571D01*
X107547619Y-90780952D01*
X107642857Y-90733333D01*
X107738095Y-90733333D01*
X107880952Y-90780952D01*
X108452381Y-91352381D01*
X108452381Y-90733333D01*
X104204762Y-87471429D02*
X104252381Y-87328572D01*
X104252381Y-87090476D01*
X104204762Y-86995238D01*
X104157143Y-86947619D01*
X104061905Y-86900000D01*
X103966667Y-86900000D01*
X103871429Y-86947619D01*
X103823810Y-86995238D01*
X103776190Y-87090476D01*
X103728571Y-87280953D01*
X103680952Y-87376191D01*
X103633333Y-87423810D01*
X103538095Y-87471429D01*
X103442857Y-87471429D01*
X103347619Y-87423810D01*
X103300000Y-87376191D01*
X103252381Y-87280953D01*
X103252381Y-87042857D01*
X103300000Y-86900000D01*
X103252381Y-86566667D02*
X104252381Y-86328572D01*
X103538095Y-86138095D01*
X104252381Y-85947619D01*
X103252381Y-85709524D01*
X104252381Y-85328572D02*
X103252381Y-85328572D01*
X103252381Y-85090477D01*
X103300000Y-84947619D01*
X103395238Y-84852381D01*
X103490476Y-84804762D01*
X103680952Y-84757143D01*
X103823810Y-84757143D01*
X104014286Y-84804762D01*
X104109524Y-84852381D01*
X104204762Y-84947619D01*
X104252381Y-85090477D01*
X104252381Y-85328572D01*
X103204762Y-83614286D02*
X104490476Y-84471429D01*
X103252381Y-82995238D02*
X103966667Y-82995238D01*
X104109524Y-83042858D01*
X104204762Y-83138096D01*
X104252381Y-83280953D01*
X104252381Y-83376191D01*
X103252381Y-82661905D02*
X103252381Y-82090476D01*
X104252381Y-82376191D02*
X103252381Y-82376191D01*
X103966667Y-81804762D02*
X103966667Y-81328571D01*
X104252381Y-81900000D02*
X103252381Y-81566667D01*
X104252381Y-81233333D01*
X103300000Y-80376190D02*
X103252381Y-80471428D01*
X103252381Y-80614285D01*
X103300000Y-80757143D01*
X103395238Y-80852381D01*
X103490476Y-80900000D01*
X103680952Y-80947619D01*
X103823810Y-80947619D01*
X104014286Y-80900000D01*
X104109524Y-80852381D01*
X104204762Y-80757143D01*
X104252381Y-80614285D01*
X104252381Y-80519047D01*
X104204762Y-80376190D01*
X104157143Y-80328571D01*
X103823810Y-80328571D01*
X103823810Y-80519047D01*
%LPC*%
D14*
X135672867Y-72461829D03*
X135672867Y-71961829D03*
X135672867Y-71461829D03*
X135672867Y-70961829D03*
X135672867Y-70461829D03*
X135672867Y-69961829D03*
X135672867Y-69461829D03*
X135672867Y-68961829D03*
X135672867Y-68461829D03*
X135672867Y-67961829D03*
X135672867Y-67461829D03*
X135672867Y-66961829D03*
X135672867Y-66461829D03*
X135672867Y-65961829D03*
X135672867Y-65461829D03*
X135672867Y-64961829D03*
X135672867Y-64461829D03*
X135672867Y-63961829D03*
X135672867Y-63461829D03*
X135672867Y-62961829D03*
X135672867Y-62461829D03*
X135672867Y-61961829D03*
X135672867Y-61461829D03*
X135672867Y-60961829D03*
X135672867Y-60461829D03*
D15*
X133772867Y-58561829D03*
X133272867Y-58561829D03*
X132772867Y-58561829D03*
X132272867Y-58561829D03*
X131772867Y-58561829D03*
X131272867Y-58561829D03*
X130772867Y-58561829D03*
X130272867Y-58561829D03*
X129772867Y-58561829D03*
X129272867Y-58561829D03*
X128772867Y-58561829D03*
X128272867Y-58561829D03*
X127772867Y-58561829D03*
X127272867Y-58561829D03*
X126772867Y-58561829D03*
X126272867Y-58561829D03*
X125772867Y-58561829D03*
X125272867Y-58561829D03*
X124772867Y-58561829D03*
X124272867Y-58561829D03*
X123772867Y-58561829D03*
X123272867Y-58561829D03*
X122772867Y-58561829D03*
X122272867Y-58561829D03*
X121772867Y-58561829D03*
D14*
X119872867Y-60461829D03*
X119872867Y-60961829D03*
X119872867Y-61461829D03*
X119872867Y-61961829D03*
X119872867Y-62461829D03*
X119872867Y-62961829D03*
X119872867Y-63461829D03*
X119872867Y-63961829D03*
X119872867Y-64461829D03*
X119872867Y-64961829D03*
X119872867Y-65461829D03*
X119872867Y-65961829D03*
X119872867Y-66461829D03*
X119872867Y-66961829D03*
X119872867Y-67461829D03*
X119872867Y-67961829D03*
X119872867Y-68461829D03*
X119872867Y-68961829D03*
X119872867Y-69461829D03*
X119872867Y-69961829D03*
X119872867Y-70461829D03*
X119872867Y-70961829D03*
X119872867Y-71461829D03*
X119872867Y-71961829D03*
X119872867Y-72461829D03*
D15*
X121772867Y-74361829D03*
X122272867Y-74361829D03*
X122772867Y-74361829D03*
X123272867Y-74361829D03*
X123772867Y-74361829D03*
X124272867Y-74361829D03*
X124772867Y-74361829D03*
X125272867Y-74361829D03*
X125772867Y-74361829D03*
X126272867Y-74361829D03*
X126772867Y-74361829D03*
X127272867Y-74361829D03*
X127772867Y-74361829D03*
X128272867Y-74361829D03*
X128772867Y-74361829D03*
X129272867Y-74361829D03*
X129772867Y-74361829D03*
X130272867Y-74361829D03*
X130772867Y-74361829D03*
X131272867Y-74361829D03*
X131772867Y-74361829D03*
X132272867Y-74361829D03*
X132772867Y-74361829D03*
X133272867Y-74361829D03*
X133772867Y-74361829D03*
D16*
X141500000Y-98550000D03*
D17*
X138000000Y-95850000D03*
D18*
X139850000Y-95850000D03*
X139200000Y-95850000D03*
X141800000Y-95850000D03*
X141150000Y-95850000D03*
X140500000Y-95850000D03*
D17*
X143000000Y-95850000D03*
D16*
X139500000Y-98550000D03*
D19*
X137000000Y-98550000D03*
X144000000Y-98550000D03*
D20*
X143400000Y-98550000D03*
X137600000Y-98550000D03*
D21*
X117400000Y-86700000D03*
D22*
X127700000Y-86200000D03*
X125500000Y-86200000D03*
X124400000Y-86200000D03*
X123300000Y-86200000D03*
X122200000Y-86200000D03*
X121100000Y-86200000D03*
X120000000Y-86200000D03*
D21*
X132200000Y-86700000D03*
D22*
X126600000Y-86200000D03*
X118900000Y-86200000D03*
D23*
X133100000Y-96300000D03*
X117600000Y-96300000D03*
D24*
X120400000Y-96700000D03*
X128400000Y-96700000D03*
D25*
X152400000Y-58420000D03*
D26*
X154940000Y-58420000D03*
X152400000Y-60960000D03*
X154940000Y-60960000D03*
X152400000Y-63500000D03*
X154940000Y-63500000D03*
X152400000Y-66040000D03*
X154940000Y-66040000D03*
X152400000Y-68580000D03*
X154940000Y-68580000D03*
X152400000Y-71120000D03*
X154940000Y-71120000D03*
X152400000Y-73660000D03*
X154940000Y-73660000D03*
X152400000Y-76200000D03*
X154940000Y-76200000D03*
X152400000Y-78740000D03*
X154940000Y-78740000D03*
X152400000Y-81280000D03*
X154940000Y-81280000D03*
D27*
X109220000Y-71120000D03*
D28*
X106680000Y-71120000D03*
X109220000Y-68580000D03*
X106680000Y-68580000D03*
X109220000Y-66040000D03*
X106680000Y-66040000D03*
X109220000Y-63500000D03*
X106680000Y-63500000D03*
X109220000Y-60960000D03*
X106680000Y-60960000D03*
X109220000Y-58420000D03*
X106680000Y-58420000D03*
D25*
X106680000Y-48260000D03*
D26*
X106680000Y-45720000D03*
X109220000Y-48260000D03*
X109220000Y-45720000D03*
X111760000Y-48260000D03*
X111760000Y-45720000D03*
X114300000Y-48260000D03*
X114300000Y-45720000D03*
X116840000Y-48260000D03*
X116840000Y-45720000D03*
X119380000Y-48260000D03*
X119380000Y-45720000D03*
X121920000Y-48260000D03*
X121920000Y-45720000D03*
X124460000Y-48260000D03*
X124460000Y-45720000D03*
X127000000Y-48260000D03*
X127000000Y-45720000D03*
X129540000Y-48260000D03*
X129540000Y-45720000D03*
X132080000Y-48260000D03*
X132080000Y-45720000D03*
X134620000Y-48260000D03*
X134620000Y-45720000D03*
X137160000Y-48260000D03*
X137160000Y-45720000D03*
X139700000Y-48260000D03*
X139700000Y-45720000D03*
X142240000Y-48260000D03*
X142240000Y-45720000D03*
X144780000Y-48260000D03*
X144780000Y-45720000D03*
X147320000Y-48260000D03*
X147320000Y-45720000D03*
X149860000Y-48260000D03*
X149860000Y-45720000D03*
X152400000Y-48260000D03*
X152400000Y-45720000D03*
X154940000Y-48260000D03*
X154940000Y-45720000D03*
D29*
X122550000Y-84200000D03*
X124050000Y-84200000D03*
D30*
X165000000Y-95000000D03*
X99000000Y-95000000D03*
X165000000Y-55000000D03*
X99000000Y-55000000D03*
D31*
X115350000Y-85000000D03*
X113850000Y-85000000D03*
X115250000Y-91300000D03*
X113750000Y-91300000D03*
X115250000Y-92900000D03*
X113750000Y-92900000D03*
X115250000Y-94500000D03*
X113750000Y-94500000D03*
X115250000Y-88100000D03*
X113750000Y-88100000D03*
X115250000Y-89700000D03*
X113750000Y-89700000D03*
X128850000Y-79900000D03*
X130350000Y-79900000D03*
X151500000Y-91000000D03*
X153000000Y-91000000D03*
D32*
X128792867Y-76271829D03*
X128792867Y-78171829D03*
D33*
X138430000Y-91440000D03*
D34*
X138430000Y-88900000D03*
X138430000Y-86360000D03*
D33*
X135890000Y-91440000D03*
D34*
X135890000Y-88900000D03*
X135890000Y-86360000D03*
D33*
X144780000Y-73660000D03*
D34*
X144780000Y-71120000D03*
X144780000Y-68580000D03*
D33*
X142240000Y-73660000D03*
D34*
X142240000Y-71120000D03*
X142240000Y-68580000D03*
D35*
X155000000Y-92950980D03*
X155000000Y-95049020D03*
D36*
X138600000Y-76650000D03*
X138600000Y-78150000D03*
D29*
X134850000Y-79900000D03*
X136350000Y-79900000D03*
X141142867Y-60521829D03*
X142642867Y-60521829D03*
X141142867Y-63121829D03*
X142642867Y-63121829D03*
X145650000Y-91300000D03*
X144150000Y-91300000D03*
X145650000Y-92800000D03*
X144150000Y-92800000D03*
D36*
X137792867Y-71371829D03*
X137792867Y-72871829D03*
X139292867Y-71371829D03*
X139292867Y-72871829D03*
X137800000Y-69950000D03*
X137800000Y-68450000D03*
X139300000Y-69950000D03*
X139300000Y-68450000D03*
X117692867Y-69471829D03*
X117692867Y-67971829D03*
D29*
X133342867Y-56321829D03*
X131842867Y-56321829D03*
D37*
X144780000Y-81788000D03*
D38*
X144780000Y-88392000D03*
X147066000Y-88392000D03*
X142494000Y-88392000D03*
D39*
X139192867Y-60571829D03*
X139192867Y-63071829D03*
D40*
X148800000Y-92760000D03*
D41*
X148800000Y-95300000D03*
D42*
X134600000Y-78200000D03*
X136800000Y-78200000D03*
X134600000Y-76600000D03*
X136800000Y-76600000D03*
D43*
X107950000Y-86360000D03*
D44*
X106680000Y-86360000D03*
X107950000Y-85090000D03*
X106680000Y-85090000D03*
X107950000Y-83820000D03*
X106680000Y-83820000D03*
X107950000Y-82550000D03*
X106680000Y-82550000D03*
X107950000Y-81280000D03*
X106680000Y-81280000D03*
M02*
